<?xml version="1.0" encoding="UTF-8"?>
<svg xmlns="http://www.w3.org/2000/svg" viewBox="0 0 257.7 283.4">
  <defs>
    <style>
      .cls-1, .cls-2, .cls-3, .cls-4, .cls-5, .cls-6, .cls-7 {
        stroke-miterlimit: 10;
      }

      .cls-1, .cls-3, .cls-4, .cls-5, .cls-7 {
        fill: none;
      }

      .cls-1, .cls-4 {
        stroke: #ff4b00;
      }

      .cls-2, .cls-8 {
        fill: #ba8e67;
      }

      .cls-2, .cls-5, .cls-6 {
        stroke: #2f0d00;
      }

      .cls-3 {
        stroke: #551300;
      }

      .cls-4, .cls-7 {
        stroke-width: 26px;
      }

      .cls-6 {
        fill: #ff4b00;
      }

      .cls-7 {
        stroke: #bf1818;
      }

      .cls-9 {
        fill: #9b6a4a;
      }

      .cls-10 {
        fill: #551300;
      }
    </style>
  </defs>
  <g id="Lag_2" data-name="Lag 2">
    <path class="cls-1" d="M37.6,47.65l-6.33,128.36c6.73-41.44,15.53-82.55,26.34-123.12,4.49-16.85,9.37-33.86,9.54-51.3.22,15.93.44,31.9-.99,47.77-3.18,35.48-14.47,69.68-21.33,104.64-2.33-7.09-3.04-14.6-3.68-22.04-1.07-12.34-2-24.69-2.94-37.04-.87-11.51-1.68-23.49,2.63-34.19,1.27,39.58-2.25,79.32-10.45,118.06-1.33-21.78,1.35-43.57,4.03-65.23,2.11-17.07,4.22-34.18,8.07-50.95,2.19-9.53,5.17-19.36,11.99-26.36-9.91,27.21-19.82,54.42-29.72,81.63-2.94,8.06-5.89,16.89-3.16,25.03,5.66-6.52,7.19-15.53,8.61-24.04,7.45-44.59,17.85-88.68,31.12-131.89-15.83,36.94-27.48,75.52-39.1,114-2.7,8.93-5.41,17.98-5.82,27.3,5.27-12.48,8.67-25.66,12.05-38.79,5.86-22.75,11.71-45.5,17.57-68.25-.18,41.28-9.75,81.98-22.08,121.38,8.1-54,20.57-107.34,37.26-159.33-10.24,26.13-23.46,51-34.24,76.91S7.79,113.57,7.95,141.64"/>
    <path class="cls-4" d="M24.62,90.66c4.66-17.39,6.13-35.63,4.32-53.54,5.03,5.78,4.97,14.25,4.73,21.9-.85,26.1-.76,52.3,2.37,78.22,1.92-32.54,8.54-64.79,19.58-95.46-9.5,27.3-19.83,54.3-30.97,80.97,2.62.06,4.26-2.76,5.24-5.19,8.3-20.58,12.1-42.64,15.85-64.51-6.79,26.37-21.16,50.99-22.85,78.17,1.5-31.95,3-63.9,4.5-95.85-4.11,6.09-5.08,13.71-5.7,21.03-2.34,27.46-1.31,55.2,3.05,82.41.24,1.53.49,3.13,0,4.59-.38,1.12-1.17,2.04-1.91,2.96-13.62,17.01-14.5,40.53-20.78,61.4.2-23.94,8.53-46.98,16.76-69.46-2.57,6.84-5.13,13.68-7.67,20.53-3.24,8.72-6.5,18.1-4.32,27.15.42-32.18,4.05-64.32,10.82-95.78-6.17,8.76-7.09,20.15-6.49,30.84s2.5,21.42,1.15,32.05c-2.77-19.92-3.91-40.07-3.42-60.18.72,5.25-.3,10.57-.96,15.83-1.14,9.03-1.25,18.16-1.35,27.27-.05,4.35-.1,8.7-.15,13.05-.08,7.6-.15,15.34,1.96,22.64,2.43-6.65,1.78-13.97,1.76-21.05-.04-18.46,4.45-36.62,5.8-55.03.46-6.37.55-12.76.26-19.13-.13-2.79-1.43-6.53-4.19-6.07-2.3,16.81-2.72,33.87-1.24,50.77-2.63-16.11,2.57-33.19-2.55-48.69.42,13.83.84,27.66,1.26,41.49-1.73-10.25-2.56-20.66-2.49-31.05.03,3.93-2.2,7.47-3.31,11.23s-.5,8.77,3.13,10.25c1.33-13.13.44-26.47-2.62-39.31,1.82,21.26,3.94,42.48,6.38,63.68.76-25-.93-50.07-5.06-74.74l6.34,18.63C6.22,49.94,3.98,26.37,5.22,2.98c3.26-1.76,7.17-2.28,10.78-1.42.03,1.18-.84,2.33-1.99,2.62,16.54,2.37,32.58,8.11,46.87,16.78-15.17-2.87-30.05-7.21-44.39-12.94-.45,1.54.47,3.13,1.45,4.41,10.57,13.85,30.29,17.75,41.76,30.86-2.77,2.34-6.99.75-10.1-1.12-9.58-5.76-17.98-13.47-24.53-22.52,21.1,6.55,40.63,18.11,56.52,33.46-21.7-.38-41.79-11.2-59.88-23.19,18.71,13.29,37.96,25.82,57.69,37.55-9.53-12.33-26.53-15.46-41.95-17.71,8.49,9.14,18.49,16.88,29.47,22.81l-32.31-29.95-4.12-3.82c-3.03-2.81-11.4-13.82-15.83-11.51-5.46,2.85-2.63,13.82-2,18.2,2.24,15.45,6.26,30.64,11.98,45.16Z"/>
    <path class="cls-4" d="M212.28,66.95l29.08-21.34c2.05-1.5,4.1-4.8,1.91-6.09-15.85,14.22-19.93,39.88-9.26,58.31-3.63-16.43-6.29-33.08-7.97-49.82,4.92,11.14,9.85,22.27,14.77,33.41,1.15,2.61,2.29,5.71.87,8.18-.69,1.2-1.88,2.02-2.83,3.03-1.95,2.09-2.81,4.97-3.35,7.78-3.02,15.97,2.64,32.11,5.29,48.15,1.83,11.08,2.21,22.33,2.6,33.56,1.14,33.35,2.28,66.7,3.41,100.04-12.29.93-24.62,1.39-36.94,1.85-6.14.23-12.28.46-18.42.69-41.48,1.56-83.07,3.12-124.46-.03-20.73-1.57-41.84-4.46-60.42-13.81-1.12-.56-2.25-1.16-3.07-2.1-.85-.96-1.31-2.19-1.7-3.4-4.38-13.63-1.59-29.34,7.21-40.63,4.53,21.72,19.09,41.12,38.68,51.54,2.89,1.54,6.77,2.78,9.18.56-9.44,2.95-19.86-1.96-26.46-9.32s-10.25-16.81-14.2-25.87S7.63,223.35-.2,217.31c12.11,3.46,22.57,11.31,34.6,15.06,12.59,3.92,26.08,3.13,39.25,3.87,23,1.29,45.43,7.33,67.78,12.96,4.65,1.17,9.42,2.33,14.18,1.85,5.14-.53,9.87-2.93,14.66-4.86,18.47-7.44,39.6-8.09,58.49-1.8,4.4,1.47,9.22,3.89,10.32,8.39,1.4,5.73-3.99,10.73-9.03,13.78-6.13,3.7-12.66,6.74-19.44,9.05,7.02-26.33,24.16-48.62,40.9-70.12-6.75-6.97-8.32-18.44-3.67-26.96-6.83-13.23-4.7-29.2-1.17-43.66s8.33-29.16,6.3-43.91c4.44,27.16,8.72,55.92-1.54,81.46-.75-22.96-.89-45.93-.41-68.9.44-21.39.9-44.54-11.58-61.91,1.64-.31,3.28-.62,4.92-.94-.42-6.69-2.97-13.24-7.17-18.46-9.51,11.96-19.02,23.91-28.53,35.87l15.46-1.74c-.49-5.57-4.46-10.68-9.73-12.55"/>
    <path class="cls-4" d="M246.21,22.46c2.11,10.17,5.18,20.14,9.14,29.74-.44-9.03-1.12-18.23-4.53-26.6-1.55-3.8-3.52-8.56-.75-11.59,1.58-1.73,4.14-2.08,6.47-2.33-4.74,2.5-9.53,5.02-14.73,6.3s-10.93,1.2-15.64-1.35c-2.53-1.36-4.82-4.72-2.92-6.87-4.51-3.62-9.77-6.32-15.34-7.86,13.14-1.78,26.52-1.76,39.65.06,2.09.29,4.66,1.09,4.94,3.18-17.19.48-34.38.96-51.57,1.43-3.85.11-7.76.23-11.41,1.45-2.82.95-5.42,2.53-8.31,3.26-3.79.95-7.78.34-11.62-.39-7.58-1.44-15.08-3.33-22.44-5.66-2.63-.83-5.29-1.72-8.05-1.72-2.96,0-5.81,1.05-8.68,1.81-14,3.71-28.83.73-43.29,1.67-6.56.42-13.05,1.66-19.6,2.31-9.06.9-18.22.68-27.23-.65"/>
  </g>
  <g id="Lag_1" data-name="Lag 1">
    <g id="Lag_2-2" data-name="Lag 2">
      <path class="cls-9" d="M137.8,8.1c-3,1.3-6.7,1.8-10,1.4l4.5,11,.4-.8-4.5,3.4c3.3-.7,8.3.4,11.6.8,4.1.4,8.2,1.1,12.3,1.9l4-14.5c-9.4-1.4-18.3-4.6-27.8-5.4l2,14.7c2.7-.7,5.5-1.1,8.3-.7l2-14.7c-4.5-.4-9-.9-13.5-1.5-4-.5-7.5,3.8-7.5,7.5s3.5,7,7.5,7.5c4.5.6,9,1.1,13.5,1.5,8.3.8,10.4-13.5,2-14.7-5.6-.8-10.8-.7-16.3.7-8.6,2.3-6.1,14,2,14.7,8.1.7,15.8,3.7,23.8,4.9,4,.6,8-1,9.2-5.2,1-3.6-1.3-8.5-5.2-9.2-6.6-1.3-13.4-2.2-20.1-2.7-5.9-.4-13.4-1.9-16.7,4.3-2,3.8-.6,10.3,4.5,11,7.7,1.1,14.4.2,21.6-2.9,3.7-1.6,4.5-7,2.7-10.3-2.2-3.9-6.6-4.3-10.3-2.7h0Z"/>
      <path class="cls-9" d="M150.3,4.3c-13.1,1-26.1.8-39.1-.7l5.3,12.8c-2.9.8-3.4,1.2-1.4,1.1,1.3,0,2.5.1,3.8.2,2.2.1,4.4.2,6.7.4,4.8.3,9.5.5,14.3.8,9.6.5,9.6-14.5,0-15-6.3-.4-12.7-.7-19-1.1-5.6-.3-10.4-1-14.9,3-5.4,4.8-.6,12.1,5.3,12.8,13,1.5,26.1,1.7,39.1.7,9.6-.7,9.6-15.8,0-15h-.1Z"/>
      <path class="cls-8" d="M146,10.9c-13.9,1.7-27.8,0-40.5-5.9l-3.8,14c9.1-.4,18.3,0,27.5.2s19-.8,28,1l-1.8-13.7c-5.7,2.9-11.7,4.6-18.1,5.5-3.7.5-5.8,4.9-5.4,8.2.5,3.9,3.6,6.1,7.4,6.5,6.6.6,13.1,2,19.5,3.9-.6-4.6-1.2-9.1-1.8-13.7-1.8,1-3.5,1.8-5.4,2.5-9,3.4-5.1,17.9,4,14.5,3.1-1.1,6.1-2.5,8.9-4.1,5.8-3.2,4.3-12-1.8-13.7-7.7-2.2-15.5-3.6-23.5-4.4l2,14.7c7.6-1.1,14.8-3.6,21.7-7,5.6-2.9,4.4-12.4-1.8-13.7-9.8-2-20.1-1.4-30-1.5s-19.6-.7-29.4-.2c-6.8.3-11,10.6-3.8,14,15.1,7,31.5,10,48,8,4-.5,7.5-3.1,7.5-7.5s-3.5-8-7.5-7.5h0l.1-.1Z"/>
      <path class="cls-8" d="M145.5,20.4c-9.6.3-19.1-.1-28.6-1.2-3.6-.4-7,3.2-7.4,6.5-.5,3.9,1.8,6.9,5.4,8.2,6.2,2.3,12.1,2.1,18.5,2.8,5.6.6,10.6,3.2,16.3,3.4l-2-14.7c-5.8,1.3-12,.6-18,1.2-6.3.7-12.5,1.9-18.6,3.7-8.4,2.5-6.3,14.2,2,14.7,9.9.7,19.9,1.4,29.8,2.1v-15c-10.6.7-21.2.2-31.7-1.9-7.8-1.5-13.9,9.8-5.8,13.7,2.5,1.2,5.1,2.2,7.7,3,9.3,2.7,13.2-11.8,4-14.5-1.5-.4-2.8-.9-4.1-1.5l-5.8,13.7c11.8,2.3,23.7,3.2,35.7,2.4,9.6-.6,9.6-14.3,0-15s-19.9-1.4-29.8-2.1l2,14.7c6-1.8,12.1-3.1,18.4-3.5,6.3-.4,12.2-.1,18.2-1.4,8.5-1.9,6.2-14.4-2-14.7-4.9-.2-9.5-2.7-14.4-3.2-5.7-.6-10.9-.4-16.4-2.5l-2,14.7c9.5,1.1,19.1,1.5,28.6,1.2s9.7-15.3,0-15h0v.2Z"/>
      <path class="cls-8" d="M103.2,26.7c1.9,6.9,2.4,14,1.2,21.1l14.7,2c-.9-10.9-2.4-25.5-10.9-33.4-4.1-3.8-11-2.3-12.5,3.3-3.3,12.1-1.5,24.9,5.3,35.5,4.4,6.9,16.4,2.6,13.7-5.8s-5.2-16.3-7.9-24.4c-2.4-7.5-6.4-11.9-13.3-15.6-5.2-2.8-10.9.8-11.3,6.5-.6,8-.1,15.8,1,23.8l9.2-9.2c-3.8-.9-8.3-3.9-10.3-7.4l.8,5.8c1.3-5.8-1.7-9.5-2.9-15-1.2-5.8-2.6-9.8-8.5-12.2-3.8-1.5-8.2,1.7-9.2,5.2-1.2,4.3,1.5,7.7,5.2,9.2-3.2-1.3-2.9-3.3-2.3.1.3,1.3.5,2.7.9,4,.8,2.8,2.1,5.4,3.3,8.1l-1-3.8c0,.8-.2,4.2.7,6.2,1.1,2.4,3.3,4.3,5.2,6.1,4,3.8,8.6,6.9,14.1,8.2,6.1,1.4,10-3.6,9.2-9.2-.9-6.6-.9-13.2-.4-19.8l-11.3,6.5c1.8.9,4.1,1.9,5.2,3.6,1.5,2.3,2,5.9,2.9,8.5,2,6.3,4.1,12.6,6.1,19l13.7-5.8c-4.7-7.3-6.1-15.6-3.8-24l-12.5,3.3c5.2,4.8,5.9,16.1,6.5,22.8.3,3.7,2.6,6.9,6.5,7.4,3.4.4,7.6-1.6,8.2-5.4,1.6-9.8,1.4-19.4-1.2-29-2.5-9.3-17-5.4-14.5,4h0l.2-.2Z"/>
      <path class="cls-8" d="M77.8,18.8c8.6,1.1,17.5,1.7,26,3.7v-14.5c-5.7.8-11.7-2.1-16.8-4.1-6-2.4-12,5.9-8.5,11,4.4,6.5,8.8,13,13.2,19.4l10.3-10.3c-5.2-3.5-10.5-7.1-15.8-10.6-8-5.4-15.5,7.6-7.6,12.9,5.2,3.5,10.5,7.1,15.8,10.6,6.1,4.1,14.4-4.1,10.3-10.3-4.4-6.5-8.8-13-13.2-19.4l-8.5,11c8.2,3.3,15.8,5.4,24.8,4.1,7.5-1.1,6.8-12.9,0-14.5-9.8-2.3-20-3-29.9-4.2-4-.5-7.5,3.8-7.5,7.5s3.5,7,7.5,7.5h0l-.1.2Z"/>
      <path class="cls-8" d="M178.2,11c-4.4-.5-8.8-1-13.1-1.6l2,14.7c6.8-1.6,13.9-2.1,20.9-1.1v-14.5c-8.1,1.3-16.4.1-24.4-1.1l-2,14.7c7.2-.4,14.5-.6,21.8-.5,8.2,0,10.5-13.4,2-14.7-5.4-.8-10.8-1.6-16.2-2.5-7.9-1.2-13.7,9.1-5.8,13.7,6.7,3.9,13.2,8.1,19.3,12.9l-1.2-9.1c3.1-1.9,3.7-2.8,1.6-2.5-1,0-1.9,0-2.9.1-1.9,0-3.8.1-5.7.2-3.8.1-7.6.3-11.4.5-8.7.4-9.9,11.9-2,14.7,8.7,3.1,16.8,7.3,24.6,12.4,1.3-4.7,2.5-9.3,3.8-14-11.7,1.4-21.9-6.3-32.8-9.4-6.7-1.9-13.4,7.7-7.3,12.5,8.3,6.6,17.1,12.2,26.7,16.6,1.3-4.7,2.5-9.3,3.8-14-11.8-.2-23.3-1.6-34.7-4.4l-2,14.7c8,0,15.6,1.4,23,4.4l2-14.7c-7.2-.7-14.4-1.3-21.6-2-9.6-.9-9.5,14.1,0,15,7.2.7,14.4,1.3,21.6,2,3.7.3,7-3.1,7.4-6.5.5-3.9-1.8-6.8-5.4-8.2-8.6-3.4-17.8-5-27-4.9-8.3,0-10.4,12.7-2,14.7,12.7,3.1,25.6,4.8,38.7,5,7.1.1,10.7-10.8,3.8-14-8.4-3.9-16.4-8.5-23.7-14.3l-7.3,12.5c12.4,3.4,23.4,11.4,36.8,9.9,7.2-.8,10.4-9.6,3.8-14-8.8-5.8-18.2-10.4-28.1-13.9l-2,14.7c6-.2,12.1-.5,18.1-.7,5.1-.2,10.4,0,13.2-5,1.5-2.6,1.4-7-1.2-9.1-7.1-5.6-14.5-10.7-22.3-15.2-1.9,4.6-3.9,9.1-5.8,13.7,5.4.8,10.8,1.6,16.2,2.5l2-14.7c-7.3,0-14.5,0-21.8.5-7.9.4-10.8,13.4-2,14.7,10.9,1.6,21.4,2.9,32.3,1.1,7.1-1.1,7.2-13.4,0-14.5-9.8-1.4-19.2-1.2-28.8,1.1-8.9,2.1-5.8,13.8,2,14.7,4.4.5,8.8,1,13.1,1.6,4,.5,7.5-3.8,7.5-7.5s-3.5-7-7.5-7.5h0v.3Z"/>
      <path class="cls-8" d="M183.2,49.7c1.4,16.5,2.8,33.3-1.4,49.5h14.5c-5.5-13.8-10.3-27.9-12.6-42.6-1.3-8.3-15.8-6.4-14.7,2,2.3,18.6,5.5,37.1,9.9,55.4,4.6-1.9,9.1-3.9,13.7-5.8-10-15.8-17.6-33.1-25.6-50-3.1-6.6-14.6-3.5-14,3.8,2,23.6,7.1,46.7,15.4,68.9,4.2-2.4,8.4-4.9,12.5-7.3-8-10.3-14.6-21.6-21.8-32.5s-15.5-22.2-24.1-32.7c-5.4-6.5-16.8,2.2-11.8,9.1,8,11.1,16,22.1,23.9,33.3,3.6,5.2,7.1,10.4,10.4,15.8,1.7,2.9,3.4,5.9,4.9,8.9.5,1,2.9,6,2.8,6.2l4.5-3.5h-.6c0,.1,4,.1,4,.1-2.3-.7-4.4-3.8-5.9-5.5-2.3-2.6-4.4-5.4-6.4-8.2-4.1-5.7-7.9-11.6-11.6-17.7-7.4-12-14.3-24.4-22.5-35.9-5.5-7.8-18.3-.6-13,7.6,7.3,11,15.9,21,24.2,31.2,4,5,7.9,10.1,11.4,15.4,3.1,4.7,7.4,10.7,8.1,16.4v-4l3-3h4c-2.1-.7-4.4-3.8-5.9-5.3-2.1-2.1-4-4.2-5.9-6.5-3.5-4.2-6.7-8.8-9.7-13.5-6.3-9.8-12-20-18.4-29.7-5.3-8-17.7-.9-13,7.6,11.3,20,22.4,40.2,33.2,60.4l10.3-10.3c-6.8-4.8-12.3-12.2-17.2-18.8-5.1-7-9.6-14.4-13.6-22.1l-11.8,9.1c10.5,11.2,18.9,23.8,25.3,37.8,3.9-3,7.9-6.1,11.8-9.1-6.1-5.1-13.1-10-18.2-16.1-4.8-5.7-6.6-11.8-14.2-14.6-6.4-2.3-11.6,5.7-8.5,11,3.5,6,6.8,12.1,9.9,18.4,4.3,8.6,17.3,1,13-7.6-3.1-6.2-6.4-12.4-9.9-18.4-2.8,3.7-5.6,7.3-8.5,11,1.3.5,2.6,3.9,3.4,5.2,1.9,2.9,4.1,5.6,6.6,8.1,4.9,4.9,10.5,9.2,15.8,13.6,6.6,5.6,15.4-1.3,11.8-9.1-6.9-15.1-16.3-28.8-27.6-40.8-6-6.4-15.6,1.7-11.8,9.1,8.7,16.8,20.5,35.2,36.2,46.2,6.5,4.6,13.5-4.1,10.3-10.3-10.8-20.3-21.9-40.4-33.2-60.4l-13,7.6c6.6,10,42.2,77.7,58.2,58.8,5.3-6.2.2-14.7-3-20.7-3.4-6.4-7.6-12.4-12-18.2-9.3-12.1-19.7-23.3-28.1-36.1l-13,7.6c9.5,13.5,17.4,28,26.2,41.9,4.1,6.5,8.5,12.8,13.3,18.8,4.1,5.2,10.4,13.7,17.9,13.7s9.8-10.6,7.7-17c-2.5-7.8-6.9-15-11.3-21.9-9.7-15.2-20.7-29.6-31.2-44.3l-11.8,9.1c17,20.6,29.6,44.1,45.9,65.2,4.6,5.9,15.1-.5,12.5-7.3-7.8-20.9-12.9-42.7-14.9-64.9-4.7,1.3-9.3,2.5-14,3.8,8,16.9,15.6,34.2,25.6,50,4.6,7.2,15.7,2.6,13.7-5.8-4-17-7.2-34.1-9.3-51.4l-14.7,2c2.3,14.7,7.2,28.7,12.6,42.6,2.5,6.4,12.5,7.8,14.5,0,4.5-17.6,3.4-35.6,1.9-53.5-.8-9.6-15.8-9.6-15,0h0l-.1.2Z"/>
      <path class="cls-8" d="M167.6,66.5c-9.4-3.5-18.3-8.2-26.6-13.9-7.5-5.1-14.2,5.7-9.1,11.8,9.5,11.4,19.5,22.6,26.7,35.7l11.8-9.1c-13.4-11.4-23.9-25.5-34.3-39.7l-6.5,11.3c6.8-.8,14.2,4.7,19.9,8,6.4,3.8,12.5,7.9,18.6,12.1,4.2,2.9,9.5-.2,11-4.5,3.5-10-10.4-14.3-17.4-16.6-7.6-2.5-16.2-3.9-22.3-9.3l-3.3,12.5c6.7-2.1,13.8-.5,20.4,1.1s13.6,3.9,20,6.9c1.3-4.7,2.5-9.3,3.8-14-6.4-.2-12.4-3.9-18-6.6-6.3-3.1-12.4-6.3-18.6-9.6-1.3,4.7-2.5,9.3-3.8,14,8.2,0,21.5,1.1,26.3,9,2.8-3.7,5.6-7.3,8.5-11-18.5-7.5-37.7-13-57.4-16.3-7.1-1.2-12.9,6.8-7.3,12.5,9,9.2,18.2,18.3,29.6,24.7,1.9-4.6,3.9-9.1,5.8-13.7-11.8-1.8-23.4-4.6-34.6-8.6-9.1-3.2-13,11.2-4,14.5,10,3.6,19.2,8.7,27.8,14.9l5.8-13.7c-14.4-4.8-26.8-13.9-38.9-22.8l-7.6,12.9c11.9,8.5,23.6,17.2,33.4,28.2l7.3-12.5c-11.6-2.1-21.7-7.6-31.9-13.4-7.1-4-16,6.3-9.1,11.8,11.1,8.8,22.2,17.5,33.3,26.3l9.1-11.8c-13.6-6.5-27.8-11.8-42.5-15.4-9.5-2.4-12.9,11.1-4,14.5,10.6,4,20.6,9.4,30,15.8,1.9-4.6,3.9-9.1,5.8-13.7-10.6-2.2-20.4-6-29.6-11.7l-5.8,13.7c25,9.4,50.9,3,76.4-.9,5.2-.8,12.6-.6,17.2-3.3,5.3-3.1,5.1-9.2,2.6-14-1.2-2.2-2.7-4.3-4-6.5-.5-.8-1.1-2.7-1.9-3.3l-.3-1c-1,1.8-1,2.3,0,1.6,1.5.2,5.4-1.6,7.2-1.8,3-.2,6,0,9,.2,7.2.6,8.9-8.3,5.3-12.8s-7.2-8.3-11.3-12l-1.5,11.8c6.3-4.7,11.9-9.8,16.8-15.9l-12.8-5.3c.5,5.8-1.7,12.1-2.1,18-.4,6.4-.1,12.8.7,19.1,1.2,9.4,14.3,9.9,15,0,.6-8.4,2-15.5,5.7-23.1s7.6-15.5,10.4-23.8c1.3-3.9-1.5-8.1-5.2-9.2-10.5-3.2-20.8-.6-29.2,6.1-4.3,3.4-1.9,11.5,3.3,12.5,9.1,1.8,17.2-.4,24.4-6.3,4.5-3.7,1.7-11.2-3.3-12.5-8.5-2.3-17.3-3.5-26.2-3.5-9.6,0-9.7,15,0,15,7.6,0,14.9.9,22.2,2.9-1.1-4.2-2.2-8.4-3.3-12.5-2.7,2.2-6.4,3.1-9.8,2.4,1.1,4.2,2.2,8.4,3.3,12.5,4.2-3.3,9.7-3.7,14.6-2.2l-5.2-9.2c-2.9,8.6-7.3,16.4-11,24.7-3.8,8.4-5,16.9-5.6,26.1h15c-.8-6.3-1.1-12.7-.7-19.1.4-5.9,2.6-12,2.1-18s-8.4-10.8-12.8-5.3c-4,5-8.6,9.7-13.8,13.5-3.6,2.7-5.5,8.2-1.5,11.8s7.9,7.7,11.3,12l5.3-12.8c-9.5-.8-22.1-.3-28.9,7.6-3.4,4-2.8,9.2-.9,13.7.9,2.2,2,4.2,3.2,6.2.5.9,1.1,1.7,1.7,2.6,0-.1,2,3.4,1.8,2.2l1-3.8c3-1.7,3.6-2.3,1.6-1.9-1,.1-1.9.3-2.9.4-1.9.3-3.8.6-5.7.9-3.2.5-6.3,1-9.5,1.4-7.3,1.1-14.6,2.2-22,3.3-14.4,2.1-27.9,2-41.7-3.1-8.2-3.1-12.8,9.4-5.8,13.7,10.2,6.3,21.4,10.8,33.2,13.2,8.4,1.8,12.9-8.9,5.8-13.7-10.5-7.2-21.7-12.9-33.6-17.3-1.3,4.8-2.7,9.6-4,14.5,13.4,3.3,26.5,7.9,38.9,13.9,3.4,1.6,7.3,1.2,9.7-1.9,2.1-2.7,2.4-7.5-.6-9.9-11.1-8.8-22.2-17.5-33.3-26.3l-9.1,11.8c11.2,6.3,22.6,12.6,35.4,14.9,7.4,1.3,12.5-6.7,7.3-12.5-10.6-11.9-23.5-21.3-36.4-30.6-3.3-2.4-8.3-.6-10.3,2.7-2.3,3.8-.6,7.9,2.7,10.3,13.3,9.7,26.7,19.1,42.4,24.3,8.6,2.9,12.2-9,5.8-13.7-9.6-7-20.2-12.4-31.4-16.5l-4,14.5c11.3,4,22.8,6.8,34.6,8.6,7.8,1.2,13.8-9.2,5.8-13.7-10.2-5.8-18.4-14-26.5-22.4l-7.3,12.5c19.7,3.3,38.9,8.8,57.4,16.3,6.3,2.5,11.6-5.8,8.5-11-7.8-12.9-25.2-16.4-39.2-16.4-7.3,0-10.4,10.4-3.8,14,7.2,4,14.6,7.7,22,11.3,7.4,3.6,14.1,6.8,22.1,7,7.1.2,10.7-10.8,3.8-14-8.2-3.8-16.6-6.9-25.4-8.8-8.7-1.9-18-3.4-26.7-.7-5.1,1.6-7.7,8.6-3.3,12.5,5.5,4.9,11.9,7.8,18.8,10.1,3.4,1.1,6.8,2,10.1,3.1,1.6.5,7.3,1.9,8,3l-.8-5.8-.3.9,11-4.5c-7.1-4.9-14.2-9.7-21.8-13.9-7.2-4-15.7-9.1-24.2-8.2-5,.6-10.2,6.2-6.5,11.3,11,15.2,22.2,30.5,36.6,42.7,6.3,5.4,16-1.3,11.8-9.1-7.8-14.2-18.7-26.4-29.1-38.7l-9.1,11.8c9.4,6.4,19.5,11.4,30.2,15.4,9,3.4,13-11.1,4-14.5h0l.3.1Z"/>
      <path class="cls-8" d="M216.2,21.9c9.6,0,9.7-15,0-15s-9.7,15,0,15h0Z"/>
      <path class="cls-8" d="M177.4,60.1c1,10.4,5.9,19,8.8,28.8,3.1,10.3.9,21.3,1.8,31.9.8,9.8,13.9,9.5,15,0,1.5-13.1,3-26.3,4.5-39.4.4-3.1.7-6,1.8-9,1-2.5,2-4.9,2.4-7.6.4-2.9.4-5.7-.2-8.6-.3-1.4-.6-2.6-1.1-3.9-1.8-4.8.2.3-5,2.1l-5.8-.8.5.4-3.5-4.5c.9,4,.6,9.5.4,13.6-.2,3.9-1.7,7.3-3.4,10.8-3.7,7.7-7.7,15.4-10.2,23.6s-2.3,17.7-4.9,26.2c-2.5,8.1-6.8,15-7.9,23.6h15c-1.1-9.5-.5-20.6,2.1-29.8s7.4-17.4,6.6-27.3c-.6-8.3-12.1-10.3-14.7-2-5.9,18.4-15.8,35.5-16,55.3-.1,9.7,14.9,9.7,15,0,.2-18.1,10.1-34.4,15.5-51.3l-14.7-2c.7,9.4-5.1,17.7-6.9,26.7-2,9.6-2.9,20.5-1.8,30.3s13.8,9.6,15,0c1-8.1,6.6-15.2,8.3-23.2,1.8-8.4,2-16.9,4.8-25.1,2.9-8.3,7.5-15.8,10.8-23.9,3.2-8,2.7-16.4,2.1-24.8-.3-3.9-.6-7.4-4.5-9.6s-7.8-.8-10.4,2.3c-6.3,7.3,2.1,14.3-.6,22-1.5,4.2-2.8,7.9-3.3,12.4s-1.1,9.2-1.6,13.8c-1.1,9.9-2.3,19.7-3.4,29.5h15c-.9-10.9.8-21.9-1.5-32.7-2.1-9.6-8.2-18.2-9.1-28s-15.9-9.6-15,0h0l.1.2Z"/>
      <path class="cls-8" d="M171.2,117.4c-2.6,4.8-7,7.9-8.4,13.4-1.5,5.8-.5,12.3-1.4,18.2-1.9,13.1-5.7,25.9-4.6,39.3.7,8.3,12.1,10.4,14.7,2,7.8-24.8,6.7-51,9.4-76.5.4-4-3.8-7.5-7.5-7.5s-7,3.5-7.5,7.5c-2.2,17.6-4.4,35.2-6.6,52.9-1.1,8.5-2.2,17-2.8,25.5-.4,4.4-.5,8.8.5,13.2.8,3.5,3.3,6.8,3.7,10.4l14.7-2c-5.1-12.7-10-26-11-39.8s2.1-29,4.1-43.2c-3.7,1.5-7.3,3-11,4.5,2.7,1.8,4,6.5,5,9.3,1.2,3.4,2.1,6.8,2.9,10.3,1.8,7.6,2.8,15.3,4.2,23,2.4,14.1,6.1,28.4,14.8,40.1,2.3,3,5.7,4.6,9.4,3.1,3.2-1.3,5.7-5.3,4.3-8.9-4.5-12.1-8.4-24.4-11.5-36.9-1.5-6.1-2.9-12.2-4-18.4-.6-3.1-1.1-6.2-1.6-9.3-.2-1.5-.5-3.1-.7-4.7-.1-.8,0-4.1-.7-3.2l-4.5,3.5,1.2-.3h-4c2.8.9,5.6,6.6,6.9,8.9,2,3.5,3.8,7.1,5.5,10.8,3.7,8.1,6.3,16.6,8.3,25.3,4.8-1.3,9.6-2.7,14.5-4-4.3-12.4-8.1-25-11.5-37.6-3.1-11.7-7.6-24.6-7.9-36.8-4.7,1.3-9.3,2.5-14,3.8,12.5,19.8,19.1,43.2,26.7,65.1,3.1,9.1,16.8,5.5,14.5-4-4.8-19.3-9.5-38.7-14.3-58l-9.2,9.2c4,.8,7.5,5.2,10,8.3,3,3.7,5.3,8,7.2,12.4,3.3,7.8,16.5,2.2,13.7-5.8-5.3-14.9-11.6-29.5-18-44l-11.8,9.1c7.8,8.6,13.7,18.7,17.5,29.7,3.1,9.1,16.7,5.5,14.5-4-3.6-15.2-7.2-30.4-10.9-45.6-2.2-9.4-16.7-5.4-14.5,4,3.6,15.2,7.2,30.4,10.9,45.6l14.5-4c-4.7-13.5-11.8-25.6-21.4-36.3-2.5-2.8-7-2.8-9.9-.6-3.2,2.5-3.5,6.2-1.9,9.7,5.8,13.3,11.6,26.7,16.5,40.4,4.6-1.9,9.1-3.9,13.7-5.8-4.5-10.4-14.1-25.3-26.1-27.6-5.6-1-10.7,3.4-9.2,9.2,4.8,19.3,9.5,38.7,14.3,58l14.5-4c-7.9-23.1-15.1-47.9-28.2-68.7-3.9-6.1-14.1-3.9-14,3.8.2,13,4.6,26.5,7.9,39,3.5,13.3,7.5,26.5,12,39.5,3.1,9.1,16.6,5.5,14.5-4-3-13.3-7.9-26.3-14.5-38.3-2.9-5.1-6.3-10.3-10.9-14.1-5.3-4.3-13.4-4.8-16.5,2.5-2.4,5.6.3,13.7,1.3,19.5,1.2,7.1,2.6,14.2,4.3,21.3,3.3,14.1,7.6,27.9,12.7,41.4l13.7-5.8c-9.5-12.7-11.9-28.3-14.5-43.6-1.4-8.2-2.8-16.5-5.4-24.5s-5.5-15.4-12.5-20c-3.7-2.4-10.4-.2-11,4.5-2.2,15.5-5.7,31.5-4.6,47.1,1,15.2,5.8,29.7,11.5,43.8,1.4,3.5,4.2,5.9,8.2,5.4,3.3-.5,6.9-3.6,6.5-7.4-.5-4.1-1.8-7.3-3.2-11.1-1.5-4.1-1.3-8.2-.9-12.5.7-8.5,1.8-17,2.8-25.5,2.2-17.6,4.4-35.2,6.6-52.9h-15c-2.6,24.2-1.5,49-8.9,72.5,4.9.7,9.8,1.3,14.7,2-1-12,2.2-23.5,4-35.3.9-5.7.8-11.4,1.3-17.1.4-4.3,4.9-7.3,6.9-11,4.6-8.5-8.3-16-13-7.6h0v.2Z"/>
      <path class="cls-8" d="M176,180.6c2.1,9.7,4.1,19.3,6.2,29,1.8,8.3,15,6.4,14.7-2-.5-18.6.8-37.2,4.1-55.5,1.2-6.3-5-11.9-11-8.5-11.9,6.7-7.8,21.2-6.8,32.2,1.2,13.3,1.7,26.7,2.1,40.1l14-3.8c-5.3-12.1-10.7-24.1-16-36.2-3.6-8-15.6-2.1-13.7,5.8,4.4,19,8.9,37.9,13.3,56.9,4.6-1.9,9.1-3.9,13.7-5.8-4.3-6.9-8-14.1-10.8-21.8-2.6-7.3-4.5-14.4-9.6-20.4l-10.6,10.6c12.4,14.4,16.1,33.9,19.7,51.9,4.2-2.4,8.4-4.9,12.5-7.3-13.6-13.5-24.7-29.1-33.1-46.4l-11.8,9.1c5,4,6.4,11.9,8.6,17.7,2.7,7.1,5.4,14.3,8.1,21.5,4.6-1.9,9.1-3.9,13.7-5.8-4.9-6.3-6.8-14.5-8.8-22.1-2.2-8.5-3.9-17.1-5.4-25.7-3.1-17.5-4.8-35.2-5.4-53l-14,3.8c2,3.2,1.8,7.3,1.8,11,0,4.3-.1,8.6-.7,12.9-1.1,8.5-3.5,16.7-6.6,24.6l13.7-1.8c-1-2.2,0-6.5,0-8.8.2-3.6.4-7.1.7-10.7.5-7.1,1.3-14.2,2.1-21.3,1.6-14.2,3.6-28.3,5.7-42.5,1.2-8.1-8.8-13.3-13.7-5.8-6.6,10.1-5.6,24.5-6.3,36.1-.9,13.5-2.6,27.2-.5,40.6l14.5-4c-3.8-9.9-3.8-21.6-4.9-32.1-1.1-11.3-2.2-22.6-3.2-33.9-.9-9.7-14-9.6-15,0-2.2,20.1-4.3,40.3-3.9,60.5l14.7-2c-3.2-14.3-3.5-29.2-4.6-43.7-.8-9.8-13.9-9.5-15,0s-1.6,19.9-1.4,30l14.7-2c-2.9-9-4.8-18.2-5.6-27.6s-14.4-9.7-15,0c-.2,3.1-.4,6.3-.6,9.5l14-3.8c-1.4-2.9-2.4-5.9-2.8-9.1-.5-4-3.1-7.5-7.5-7.5s-8,3.5-7.5,7.5c.7,6,2.2,11.3,4.9,16.7,3.5,7.1,13.5,3.1,14-3.8.2-3.1.4-6.3.6-9.5h-15c.9,10.8,2.8,21.3,6.1,31.6,2.5,7.8,14.9,6.8,14.7-2-.2-10,.2-20,1.4-30h-15c1.3,15.9,1.7,32.1,5.2,47.7,1.9,8.3,14.9,6.4,14.7-2-.4-20.3,1.7-40.4,3.9-60.5h-15c1.1,11.9,2.1,23.9,3.4,35.8,1.1,11.1,1.2,23.6,5.2,34.2,3.5,9.1,16,5.5,14.5-4-1.8-11.2.2-23.4.9-34.7.4-5.5.7-11,1.2-16.6.4-4.9.5-9.7,3.3-13.9-4.6-1.9-9.1-3.9-13.7-5.8-2.3,16.1-4.6,32.2-6.4,48.4-.9,7.8-1.6,15.5-2.1,23.3s-1.8,15.8,1.5,23.2c3,6.6,11.6,3.5,13.7-1.8,4-9.8,6.4-20,7.4-30.5.9-9.4,1.8-21.3-3.4-29.5-3.8-6.1-14.2-3.9-14,3.8.6,19.1,2.6,38.2,5.9,57,1.6,9.2,3.5,18.4,5.9,27.5,2.2,8.2,4.6,17.1,9.9,23.9,2.3,3,5.6,4.6,9.4,3.1,3.2-1.3,5.7-5.3,4.3-8.9-3.1-8.4-6.3-16.7-9.4-25-2.7-7.2-4.8-15.7-11.1-20.7-6.6-5.3-15.7,1.1-11.8,9.1,9,18.4,21,35,35.5,49.4,5.6,5.5,14-.2,12.5-7.3-4.2-20.9-9.3-42-23.6-58.5-6.3-7.3-16.8,3.3-10.6,10.6,4.2,4.9,5.3,12.8,7.7,18.7,2.9,7.1,6.4,13.9,10.4,20.5,4.5,7.3,15.6,2.5,13.7-5.8-4.4-19-8.9-37.9-13.3-56.9l-13.7,5.8c5.3,12.1,10.7,24.1,16,36.2,3.1,6.9,14.2,3.3,14-3.8-.4-10.8-.8-21.7-1.5-32.5-.4-5.1-.8-10.2-1.4-15.2-.3-2.4-2.5-10.2.1-11.7l-11-8.5c-3.6,19.6-5.3,39.5-4.7,59.5,4.9-.7,9.8-1.3,14.7-2-2.1-9.7-4.1-19.3-6.2-29-2-9.4-16.5-5.4-14.5,4h0Z"/>
      <path class="cls-8" d="M189.8,210.8c.4,21.8-6.4,44.4,5.6,64.4l11.8-9.1c-8.2-7.8-16.4-15.5-24.6-23.2-7-6.6-17.3,3.6-10.6,10.6,5.2,5.4,10.4,10.8,15.6,16.2,4.6,4.7,9.4,10.1,16.5,10.2s11.5-4.6,13.9-10.8c2.7-6.7,4.9-13.6,7.4-20.3l-14.7-2c.2,4.4-2,7.8-4.2,11.5s-.7,8.2,2.7,10.3c3.8,2.3,7.8.5,10.3-2.7,8.2-10.6,12.5-22.8,17.6-35,2.3-5.6,6.6-10.9,8.4-16.6,1.9-6.2.8-13.8.1-20.1-.6-6.7-7.6-9.6-12.8-5.3s-8,11.2-11.1,16.9c-3.8,6.9-7.7,13.9-11.4,20.8-3.3,6.2-6.7,12.5-8.6,19.3s-2.6,13.8-3.9,20.7l14.5,4c1.9-10.1,3.9-20.2,5.8-30.3s4.2-20,4.8-30.1c.4-7.7-10.2-9.8-14-3.8s-7,12.9-9.1,19.9c-1.9,6.3-2.9,12.9,3.5,17,4.4,2.8,12-.8,11.3-6.5-1-7.4-2-14.8-3-22.3-.5-3.5-1-7.1-1.4-10.6-.3-1.9-.5-3.9-.8-5.8l-.3-1.9c0-3.2-.9-2.7-2.8,1.4l-5.8.8c-1.6-1.7-2.2-2-1.9-.7.2.7.2,1.4.1,2.2,0,1.7-.2,3.5-.3,5.2-.2,3.6-.5,7.2-.8,10.8-.5,7.5-1.1,15.1-1.6,22.6h15c-.7-18-2.4-40.5,7.4-56.5l-13.7-1.8c2,13.1,5.9,25.5,11.1,37.6,3.5,8.1,15.5,2.1,13.7-5.8-3.1-13.6-4.5-27.6-6.3-41.4-4.9.7-9.8,1.3-14.7,2,6.1,15.2,12.2,30.5,18.3,45.7,4.6-1.9,9.1-3.9,13.7-5.8-4.8-9.7-6.5-20.5-7.5-31.2-.5-5.2-.9-10.5-1.4-15.7-.5-5.7-.6-11.8-3.4-16.8-4.2-7.7-15.5-2.3-13.7,5.8,4,17.8,8,35.6,12.1,53.3l13.7-5.8c-10.5-13.6-16-29.6-19.9-46.2l-11,8.5c4.4,2.2,7,8.6,9.2,12.8,2.8,5.2,5.1,10.5,6.9,16.2,4.6-1.9,9.1-3.9,13.7-5.8-9.5-14.1-17.7-28.9-24.6-44.5l-11.8,9.1c10.5,8.8,17.3,20.3,19.7,33.8l14.5-4-12.2-39.4-9.2,9.2c3.6.6,5.7,14.6,6.4,18.4,1.5,7.7,2.7,15.3,5.6,22.6,3.5,8.7,17,5.6,14.5-4-3-11.4-4-23-4.8-34.7l-14,3.8c5.6,10.9,9.5,22.3,12.1,34.2l14.5-4c-2.4-6-4.2-12.2-5.5-18.5l-13.7,5.8c3.2,5,6,10.2,8.3,15.7,1.6,3.8,7.1,4.5,10.3,2.7,3.9-2.2,4.3-6.5,2.7-10.3-2.3-5.5-5.1-10.7-8.3-15.7-4.7-7.2-15.4-2.6-13.7,5.8,1.3,6.4,3.1,12.5,5.5,18.5,3.5,8.8,16.5,5.6,14.5-4-2.8-13.2-7.5-25.8-13.6-37.8-3.3-6.5-14.5-3.6-14,3.8.9,13,2,26.1,5.4,38.7,4.8-1.3,9.6-2.7,14.5-4-3.8-9.4-4.6-19.4-7-29.1-2-8.2-5.8-20.7-15.5-22.4-5.3-.9-11.1,3.3-9.2,9.2l12.2,39.4c2.9,9.3,16.2,5.4,14.5-4-2.9-15.7-11.3-30.2-23.6-40.5-6.7-5.6-15.3,1.2-11.8,9.1,6.9,15.5,15.1,30.4,24.6,44.5,4.5,6.7,16.5,2.8,13.7-5.8-2.4-7.4-5.5-14.5-9.3-21.3-3.4-6.1-7.2-13.4-13.7-16.6-5.9-2.9-12.6,1.9-11,8.5,4.2,17.7,10.2,35.2,21.4,49.8,5,6.5,15.7,3,13.7-5.8-4-17.8-8-35.6-12.1-53.3-4.6,1.9-9.1,3.9-13.7,5.8,1.1,2,.9,5.3,1.2,7.5.3,2.6.5,5.2.7,7.9.5,5.5.9,11,1.6,16.5,1.4,11.1,3.8,21.7,8.8,31.9,3.7,7.5,16.9,2.2,13.7-5.8-6.1-15.2-12.2-30.5-18.3-45.7-1.4-3.5-4.3-5.9-8.2-5.4-3.3.5-7,3.7-6.5,7.4,2,15.1,3.4,30.5,6.8,45.4l13.7-5.8c-4.7-10.9-7.8-22.4-9.6-34.1-1-6.7-10.6-6.8-13.7-1.8-11.3,18.4-10.2,43.3-9.5,64,.4,9.7,14.3,9.6,15,0,.8-10.5,1.5-21,2.3-31.5.6-8,1.2-22.2-9.9-23.2-12.4-1.1-9.2,13.9-8.3,21.1,1.4,10.6,2.9,21.3,4.3,31.9,3.8-2.2,7.5-4.3,11.3-6.5,1.4,4.8,2.3,5.6,2.7,2.5.3-1.1.6-2.2,1-3.3.5-1.7,1.1-3.3,1.8-4.9,1.5-3.7,3.5-7.2,5.6-10.6-4.7-1.3-9.3-2.5-14-3.8-.5,9.5-2.8,18.8-4.6,28.1-1.8,9.4-3.6,18.9-5.4,28.3s12.6,13.5,14.5,4c1.2-6.3,1.9-12.7,3.5-19s4.5-11.8,7.5-17.4c3.4-6.4,6.9-12.8,10.5-19.1,2.8-5.1,5.2-11.9,9.8-15.6l-12.8-5.3c.5,4.9,1.9,12,0,16.5-2.4,5.5-5.7,10.6-8,16.2-4.6,11.1-8.7,21.8-16.1,31.4l13,7.6c3.6-5.8,6.7-12,6.2-19-.5-8.6-11.8-10-14.7-2-1.7,4.6-3.3,9.2-5,13.8-.4,1.1-1.2,5.5-2.2,6.1.5.4.6.4.4.1-.5-.3-1-.7-1.4-1.2-7-6.5-13.4-13.9-20.1-20.8l-10.6,10.6c8.2,7.8,16.4,15.5,24.6,23.2,6.1,5.7,16.3-1.6,11.8-9.1-10.2-16.9-3.3-38.3-3.6-56.8-.2-9.6-15.2-9.7-15,0h0l-.5.2Z"/>
      <path class="cls-8" d="M254.4,184.5c-1.2-12.3-4-24-8.4-35.5-4-10.3-7.6-21.2-16-28.8-7.1-6.5-17.8,4.1-10.6,10.6,7.2,6.5,9.6,15.5,12.8,23.9,3.6,9.6,6.2,19.6,7.3,29.9.4,4,3.2,7.5,7.5,7.5s7.9-3.4,7.5-7.5h0l-.1-.1Z"/>
      <path class="cls-8" d="M211.9,109.7c-.3,17.5,2.1,35,7,51.8,2.7,9.2,17.2,5.3,14.5-4-4.5-15.6-6.7-31.5-6.4-47.8.1-9.7-14.9-9.7-15,0h-.1Z"/>
      <path class="cls-8" d="M247.3,148.3c-4-6.5-4.8-14.5-7.7-21.5s-6.9-13.2-9.9-20.1c-3.3-7.4-6.2-14.9-9.3-22.3-3.3-7.9-6.8-15.8-8.9-24.1-2.4-9.4-16.8-5.4-14.5,4,2.1,8.3,5.6,16.2,8.9,24.1s6.6,16.3,10.2,24.4c3.1,7.2,7.7,13.8,10.3,21.2,2.7,7.4,3.8,15.1,7.9,21.9,5,8.2,18,.7,13-7.6h0Z"/>
      <path class="cls-8" d="M199.1,55.3c.4,3.7,1,7.2,2.1,10.7,1.9,5.9,10.5,7.7,13.7,1.8l.7-1.3-13.7-1.8c1.9,6,3.8,11.9,6,17.8s5.3,11,7.1,16.8,2.4,11.8,4.8,17.5,5.4,11.5,8.1,17.3c4.2,8.7,17.1,1.1,13-7.6-2.5-5.3-5.5-10.6-7.6-16.1-2.1-5.4-2.4-11.3-4.4-16.7-1.9-5.2-4.6-10-6.6-15.1-2.2-5.9-4.1-11.8-6-17.8s-10.5-7.7-13.7-1.8l-.7,1.3c4.6.6,9.1,1.2,13.7,1.8-.7-2.2-1.3-4.4-1.6-6.7-.4-4-3.1-7.5-7.5-7.5s-7.9,3.4-7.5,7.5h0l.1-.1Z"/>
      <path class="cls-8" d="M237.4,116.6c-1-4.1-3.8-7.5-4.4-11.8-.5-4-3.1-7.5-7.5-7.5s-8,3.5-7.5,7.5c.4,3,.8,5.9,1.9,8.8.9,2.4,2.5,4.8,3,7,1,3.9,5.4,6.3,9.2,5.2s6.2-5.3,5.2-9.2h.1Z"/>
      <path class="cls-8" d="M210.1,68.4c9.6,0,9.7-15,0-15s-9.7,15,0,15h0Z"/>
      <path class="cls-8" d="M204.7,69.3c.5,5.7,1.6,11.2,3.7,16.6,2.2,5.8,10.2,7.7,13.7,1.8l.5-.9-11.8,1.5c.9.8,1.8,1.5,2.8,2.1,4.4,2.4,12.1-.5,11.3-6.5-.4-2.6-.8-4.6-2.1-7-.4-.7-.8-1.4-1.2-2-.5-.9-.5-1.4-.4-.1l-7.5,7.5h.4c-1.3-.3-2.5-.7-3.8-1l.3.2c3.3,2.4,8.4.5,10.3-2.7,2.2-3.8.6-7.9-2.7-10.3-1.3-.9-2.9-1.2-4.4-1.2-3.8,0-7.9,3.4-7.5,7.5.2,2.6.8,4.7,2,7,.4.7.8,1.4,1.2,2,.5.8.6,1.4.5.1l11.3-6.5.2.2c-3.5-3.3-9.3-2.7-11.8,1.5l-.5.9,13.7,1.8c-1.5-4-2.8-8.2-3.2-12.6-.4-4-3.2-7.5-7.5-7.5s-7.9,3.4-7.5,7.5h0v.1Z"/>
      <path class="cls-8" d="M234.9,194c.9,13-1,26.1-6.5,38-1.4,2.9-3,5.7-4.4,8.6s-1.9,6.2-3.2,9c-.9,1.8-2.9,3-4.3,4.6-1.1,1.3-3.2,5.3-5,5.3-9.6.1-9.7,15.1,0,15,8.8-.1,11.9-6.3,17.6-11.7,2.7-2.5,4.8-4.9,6-8.5,1.4-4.2,2.8-7.7,4.8-11.6,7.7-15,11.2-31.9,10.1-48.7-.7-9.6-15.7-9.6-15,0h-.1Z"/>
      <path class="cls-8" d="M226.2,265.9c-.5,0-.9.1-1.2.5-2.4-3.2-4.8-6.3-7.2-9.5l3.3-3.2h4l-1-.3c.6,4.6,1.2,9.1,1.8,13.7,5.5-3.6,11-7.5,14.5-13.2s5.8-13.2,8-19.7c4.7-14,5.1-28.7,5.5-43.3.3-9.7-14.7-9.6-15,0-.3,11.9-.5,24.1-3.9,35.7-1.6,5.6-3.7,11.1-6,16.5s-6.1,8-10.7,11.1c-5.6,3.7-4.4,11.5,1.8,13.7,5.2,1.8,11-1.5,12.1-6.9,1-4.7-2.1-9.5-7.2-9.5-6.3,0-12,4.1-13.2,10.5-1.8,9.4,12.6,13.5,14.5,4h0l-.1-.1Z"/>
      <path class="cls-8" d="M240.2,190.2c.9,8.3,2.1,17.2,0,25.4-1,4.1-3,7.8-4.2,11.8-.5,1.8-.8,3.7-1.2,5.6-.2,1-.4,2.1-.8,3.1-.5.8-.6.8,0,.3-9.1,3.1-5.2,17.6,4,14.5,5.2-1.8,8.8-5.5,10.5-10.8.8-2.3,1-4.7,1.5-7,.7-2.9,2-5.6,3-8.4,4.2-11,3.2-23,2-34.5-.4-4-3.1-7.5-7.5-7.5s-7.9,3.5-7.5,7.5h.2Z"/>
      <path class="cls-8" d="M244.8,237.7c9.6,0,9.7-15,0-15s-9.7,15,0,15h0Z"/>
      <path class="cls-8" d="M249.9,209.1c9.6,0,9.7-15,0-15s-9.7,15,0,15h0Z"/>
      <path class="cls-8" d="M247.9,196.6c9.6,0,9.7-15,0-15s-9.7,15,0,15h0Z"/>
      <path class="cls-8" d="M118,132.7c1,1.2,1.2,1.1.8,2.4l12.5-3.3.9,1.6v4l.2-1-14.7-2c-.6,4.4-1.1,8.8-1.8,13.1-.5,3.6-.6,7.9-2.4,11.1l14,3.8c.2-2.1.5-4.1.7-6.2.5-4-3.8-7.5-7.5-7.5s-7,3.5-7.5,7.5c-.2,2.1-.5,4.1-.7,6.2-.9,7.6,10.6,9.9,14,3.8,5.1-9.2,4.9-21.6,6.2-31.8,1.1-8.3-13.1-10.2-14.7-2-.8,4-.2,7,2.7,10,4,4.1,11,2.1,12.5-3.3,1.4-4.8.8-9.9-2.3-13.9-2.5-3.2-6.4-4.9-10.3-2.7-3.2,1.8-5.1,7-2.7,10.3h0l.1-.1Z"/>
      <path class="cls-8" d="M125.6,151c2,10.6,0,21.6,1.8,32.3.8,5.3,2.8,10.1,4.7,15.2s2.9,10,4.1,15.1c2.7,11.1,17.1,12.3,19.1.1.9-5.5.7-10.9-.1-16.3-.4-2.3-.9-4.6-1.6-6.9s-2.4-4.7-2.2-7.1l-1,3.8.6-1.3-13.7-1.8c3.6,12.2,7.2,24.5,10.8,36.8,2.7,9.3,16.7,5.4,14.5-4-2.6-11.2-8.8-20.9-15.2-30.3l-11.8,9.1c12.9,15.9,24.1,33.1,33.5,51.3l10.3-10.3c-9.3-4.7-16.1-12.4-22.9-20.1-6.4-7.3-16.8,3.3-10.6,10.6,9.2,10.9,18.9,21.5,28.9,31.7,6.8,6.9,17.2-3.6,10.6-10.6-5.2-5.5-10.8-10.6-16.8-15.2s-11.9-9.8-19.8-8.6c-4,.6-6.2,5.7-5.2,9.2,2.2,8.3,12.6,12.1,19.3,16.2,8.4,5,16.8,10.1,25.2,15.2,1.3-4.7,2.5-9.3,3.8-14-7.8.5-15.5,1-23.3,1.5-6.9.4-10.9,10.4-3.8,14,10.8,5.3,21.9,9.9,33.3,13.6l2-14.7c-8,.1-15.9.2-23.9.4-7.3.1-15.2,1-22.5-.2,1.1,4.2,2.2,8.4,3.3,12.5,12.1-9.4,22.4-20.5,31.3-33,3.6-5.1-2.5-13.4-8.5-11-5.7,2.3-10.4,5.5-15,9.4-2,1.7-3.9,3.5-5.9,5.2-1.1.9-2.2,1.9-3.5,2.7l-1.4.8c-1.7.2-1.6.8.4,1.7-2.4,3.2-4.8,6.3-7.2,9.5,11.2-1.4,22-3.7,32.7-7.4,6.2-2.2,8-13.4,0-14.5-14.6-2-28.8-5.6-42.7-10.7-.7,4.9-1.3,9.8-2,14.7,3-.1,6.1-.2,9.1-.3,9.9-.3,9.4-13.9,0-15-21.7-2.5-43.4-5.1-64.2-12.2l-4,14.5c14.5,3.1,29,6,43.5,9.2,11.9,2.6,24.5,5.6,34.3,13.4,2.4-4.2,4.9-8.4,7.3-12.5-29.5-8.8-58.7-18.6-87.6-29.4,1.5,3.7,3,7.3,4.5,11-1.1.5-.9.5.6,0,1.2-.2,2.4-.5,3.5-.6,2.3-.4,4.6-.6,6.9-.8,4.5-.3,9-.4,13.5-.1,9.2.5,18.2,2.5,27,5.5l2-14.7c-18.5-1.3-36.7-4.7-54.6-9.8l-4,14.5c25.8,4.6,48.3,19.2,73.1,27,8,2.5,13.5-9.9,5.8-13.7-14.6-7.3-30.1-12.4-45.6-17.3-.7,4.9-1.3,9.8-2,14.7,7.3-.4,14.5,0,21.6,1.6,9.4,2,13.4-12.5,4-14.5-8.5-1.8-17-2.6-25.6-2.1s-10.2,12.1-2,14.7c14.3,4.5,28.6,9,42,15.7,1.9-4.6,3.9-9.1,5.8-13.7-24.8-7.8-47.2-22.4-73.1-27-9.4-1.7-13.4,11.8-4,14.5,19.1,5.5,38.7,8.9,58.6,10.3,8.9.6,9.6-12.1,2-14.7-11.7-4-24-6.2-36.4-6.2-6.1,0-12.1.5-18.1,1.5-5.4.8-11.5,2.1-14,7.6-2.1,4.7-.4,9.2,4.5,11,28.9,10.8,58.1,20.6,87.6,29.4,6.8,2,13.3-7.7,7.3-12.5-11-8.8-24-13.4-37.6-16.6-15.5-3.6-31.2-6.6-46.8-9.9-9.5-2-13.1,11.3-4,14.5,22,7.5,45.2,10.2,68.2,12.8v-15c-3,.1-6.1.2-9.1.3-8.8.3-9.8,11.8-2,14.7,13.8,5.1,28.1,8.7,42.7,10.7v-14.5c-9.3,3.3-18.9,5.7-28.7,6.9-4.4.5-9.1,4.4-7.2,9.5,3.6,10.1,14.5,11.8,23,6.4,7.3-4.6,12.7-12.5,20.9-15.7-2.8-3.7-5.6-7.3-8.5-11-8.1,11.4-18,21.4-29,29.9-4.3,3.3-2,11.7,3.3,12.5,8.1,1.3,16.3.9,24.5.8,8.6-.1,17.2-.3,25.9-.4s10-12.1,2-14.7c-10.2-3.4-20.1-7.4-29.7-12.1l-3.8,14c7.8-.5,15.5-1,23.3-1.5,7.3-.5,10.4-10,3.8-14s-13.5-8.1-20.2-12.1c-3.4-2-6.7-4-10.1-6.1-1.4-.8-2.8-1.7-4.2-2.5-.8-.5-1.7-1-2.5-1.5-1.2-.9-1.4-1-.6-.1l-5.2,9.2,1.4-.2h-4c4.4,1.3,9.2,6,12.7,8.9,4.2,3.5,8.2,7.3,11.9,11.3l10.6-10.6c-10-10.2-19.6-20.8-28.9-31.7l-10.6,10.6c7.6,8.6,15.5,17.2,25.9,22.5,6.7,3.4,13.8-3.5,10.3-10.3-10-19.4-22.1-37.5-35.8-54.4-5.3-6.6-16.5,2.1-11.8,9.1,5.7,8.4,11.3,16.7,13.7,26.7l14.5-4c-3.6-12.2-7.2-24.5-10.8-36.8-1.7-5.8-10.8-7.9-13.7-1.8-3,6.4-.6,10.8,1.3,17,1.6,5.3,2.7,12.1.8,17.4l3.5-4.5-.9.5,3.8-1h-1c0-.1,3.8.9,3.8.9,1.8,1.2,1.2.9,1.2-.8,0-1.3-.6-2.9-.9-4.2-.6-2.5-1.4-5-2.2-7.4-1.9-5.3-4.3-10.4-5.2-16-1.7-11,.1-22.2-1.9-33.2-1.7-9.5-16.2-5.5-14.5,4h0l-.5-.1Z"/>
      <path class="cls-8" d="M69.7,41.5l3.6-3.1,5.8.8-.4-.2,3.4,4.5v-.5l-2,7.3.3-.3-5.3,2.2h.5l-6.5-11.2c-5.7,10.6-11.4,21.2-17.1,31.7l14,3.8-1,2.3c7-6.7-3.6-17.3-10.6-10.6-2.3,2.2-3.6,5-3.4,8.3.4,7,10.2,10.7,14,3.8,5.7-10.6,11.4-21.1,17.1-31.7,2.9-5.4-.9-10.6-6.5-11.3-8.4-1-11,11.2-4.1,14.9,3.8,2,8.3.7,11-2.5,3-3.5,2.9-7.8,1.7-12.1-2.7-9.2-17.2-5.3-14.5,4h0v-.1Z"/>
      <path class="cls-8" d="M48.6,78.9c-.1,1.4-3,4.8-3.9,6-1.6,2-3.4,3.6-4.6,5.9-3.1,6.1-4.7,13.5-6.8,20-3,9.2,11.4,13.1,14.5,4,1.9-5.7,3.1-13.9,6.9-18.5,4.2-5.1,8.3-10.5,8.9-17.3.8-9.6-14.2-9.6-15,0h0v-.1Z"/>
      <path class="cls-8" d="M53,91.1c9.6,0,9.7-15,0-15s-9.7,15,0,15h0Z"/>
      <path class="cls-8" d="M32.9,108.2c.6-1.4.6-1.7,0-.8-.5.7-1,1.3-1.6,2-.8,1.3-1.4,2.7-1.9,4.1-.3,1-.2,1.6-.7,2.5-.7,1.3-1.9,2.4-2.6,3.7-3,5.9-4.6,13-6.7,19.2-3.1,9.3,11,12.8,14.5,4,.2-.6.5-1.2.7-1.9,1.5-3.8-1.6-8.2-5.2-9.2-4.2-1.2-7.8,1.5-9.2,5.2-.2.6-.5,1.2-.7,1.9,4.8,1.3,9.6,2.7,14.5,4,2.2-6.4,3.7-13.2,7.4-18.8,1.5-2.2,1.8-5,2.8-7.1,1.8-3.4,3.6-4.7,3.6-8.9.2-9.7-14.8-9.7-15,0h0l.1.1Z"/>
      <path class="cls-8" d="M18.1,140.9c-2.4,7-4.9,14-7.1,21.1-1,3-1.6,6-2.1,9.2s-.1,7.1-1.5,9.9l11.8-1.5-.7-.8,2.2,5.3v-1.1c-.3,1.3-.7,2.5-1,3.8h.2c7.2-6.5-3.4-17.1-10.6-10.7-4.4,3.9-4.8,9.8-.7,14.1,3.1,3.3,9.7,2.8,11.8-1.5,3.2-6.6,2.5-14,4.5-21,2.2-7.7,5.1-15.2,7.6-22.8,3.1-9.2-11.4-13.1-14.5-4h.1Z"/>
      <path class="cls-8" d="M13.7,185.9c9.6,0,9.7-15,0-15s-9.7,15,0,15h0Z"/>
      <path class="cls-8" d="M5.8,184c-2.6,9.9-5,20.4-5.5,30.6-.4,9,3.6,16.8,7.6,24.6,4,7.6,7.9,15.3,13.9,21.6,6.4,6.6,13.5,13,21.3,17.8,8.2,5.1,15.8-7.8,7.6-13-6.3-3.9-11.7-9-17-14.2-5.4-5.3-8.6-11.7-12.1-18.3-3.6-6.7-7-12.7-6.2-20.5.8-8.3,2.7-16.6,4.8-24.7,2.4-9.4-12-13.3-14.5-4h0l.1.1Z"/>
      <path class="cls-8" d="M53.1,278.7c18.6,1.7,37.3,3,56,3.7,9.2.4,18.4.6,27.6.8,8.7.1,18.2,1.3,26.3-2.7,8.6-4.4,1-17.3-7.6-13-3.2,1.6-8.3.8-11.8.8-3.9,0-7.9,0-11.8-.2-8.9-.2-17.7-.5-26.6-.8-17.4-.8-34.7-2-52.1-3.6-9.6-.9-9.6,14.1,0,15h0Z"/>
      <path class="cls-8" d="M144.7,253.2c-15.2.2-29.8-2.8-43.8-8.6v14.5c6.7-1.1,13.5-1.5,20.3-1.4,3.1,0,6.2.3,9.3.6,1.8.2,3.6.4,5.4.8l1.8.3c1.5.5,1.9.5,1,.1l-1-3.8c.2-.3.5-.5.8-.7-.7.2-1.5.2-2.2.2-2,0-4-.1-6,0-8.4.3-10.2,12.2-2,14.7,6.2,1.9,12.4,3.8,18.7,5.7,8.2,2.5,13.1-9.4,5.8-13.7-9.8-5.7-20.8-7.6-32-8.4s-23.6-1.5-35.2,0c-4,.5-7.5,3.1-7.5,7.5s3.4,7.6,7.5,7.5c9.4-.3,18.7,0,28.1.8v-15c-16.2,1.5-32.4.9-48.4-2.1-.7,4.9-1.3,9.8-2,14.7,6.9.6,13.7,1.3,20.6,1.9v-15c-10.2-.2-20.4-1.1-30.4-3.2-2.4-.5-5-1.4-7.5-1.7-1.4-.5-1.6-.5-.5,0-.4-.8-.8-1.5-1.3-2.3-2.3-3.6-5.6-6.1-8.4-9.2-5.2-5.7-8.2-13-9.8-20.5-.9-3.9-1.2-7.9-1.3-11.9,0-3.7-.5-7.8,1.9-10.9h-12.9c4.9,7.2,5.8,16,8.8,24.1,3.3,8.7,8.8,15.8,16.1,21.6s15.2,10.5,22.8,15.7c8.9,6.2,17.5,12.8,26,19.5,3.2,2.5,7.5,3.1,10.6,0,2.9-2.8,2.9-7.8,0-10.6-16.9-16.1-35.6-30.4-57.8-38.4-6.4-2.3-11.4,5.7-8.5,11,5.9,10.6,13.1,20.3,21.4,29.1,6.7,7,17.1-3.5,10.6-10.6s-13.6-14.3-20.8-21.1c-1.1,4.2-2.2,8.4-3.3,12.5,23.9-6.7,49.8-4.6,72.1,6.4,1.3-4.7,2.5-9.3,3.8-14-4.6-.1-8.7-2.5-12.8-4.4-4.8-2.3-9.6-4.7-14.4-6.9-9.7-4.5-19.5-8.8-29.5-12.6-3.5-1.3-7.5,1.2-8.9,4.3-1.6,3.7,0,7.1,3.1,9.4,13.7,10.1,27.7,19.8,42,29.1l-1.5-11.8s-5.4-1.1-6.2-1.3c-2.9-.5-5.8-1.2-8.7-2-5.7-1.5-11.3-3.3-16.6-5.6l-3.8,14c13.5-1.1,26.1,3.5,38.2,8.9,8.6,3.8,16.1-7.9,7.6-13-20.7-12.2-39.7-27-56.7-44v10.6c-1.2,1.2-1.1.2,0,.9.9.6,3.5.5,4.7.7,2.5.4,5,.9,7.5,1.4,5.6,1.1,11.2,2.4,16.8,3.7,10.8,2.7,21.5,5.8,32.3,8.9l4-14.5c-13.8-2.3-28-4.6-40.7-10.8.9,3.4,1.8,6.8,2.7,10.3-2.2,1.4-2.2,1.6.1.8,1.1-.2,2.1-.4,3.2-.6,2.3-.3,4.7-.3,7-.3,4.4,0,8.7.5,13.1,1.2,9.3,1.4,18.5,3.1,27.9,3.3,7,.1,10.8-10.9,3.8-14-9.1-3.9-18-8.2-26.8-13l-5.8,13.7c9.9,3,17.6,8.6,24.6,16.1,3.1,3.3,6.3,7.9,10.4,10.2,1.9,1.1,4.4,1.5,6.5,1,.8-.2,2.6-.9,3.3-1.6,1.4-1.4.8-.1-.2-.4,6.8,1.6,13.3-7.3,7.3-12.5-1.6-1.4-.9-5.6-1.1-7.7-.4-3.4-1.7-6.3-3.2-9.3-3.4-6.8-6.8-13.6-10.2-20.4v7.6c4.1-7.2,4.6-16.1.5-23.5-4.3-7.7-13.3-11.6-20.6-5.4s3.3,16.8,10.6,10.6c-7.6,6.4-3.6-1-3.3,1.8,0,.8.9,1.8,1,2.7.3,1.7.1,3.4-.5,5-1.3,3.3-2.1,5.3-.7,8.8,1.3,3.2,3.1,6.3,4.7,9.3,2.3,4.6,6.4,10.1,7,15.3.6,6,.3,11.4,5.2,15.7,2.4-4.2,4.9-8.4,7.3-12.5-2.5-.6-5.1-.8-7.6,0-.9.3-2.1.8-2.9,1.2-.4.2-2.9,1.8-2.3,1.6l5.8-.8c2.3,1.6,2.5,1.6.6,0-.9-.9-1.7-1.7-2.5-2.6-1.2-1.3-2.5-2.6-3.7-4-3.1-3.3-6.2-6.4-9.8-9.2-6.6-5.2-14-9-22.1-11.4s-13.3,9.6-5.8,13.7c8.7,4.7,17.6,9,26.8,13l3.8-14c-11.4-.2-22.6-3-33.9-4.1-8.7-.9-25.5-2.2-30.4,7-1.8,3.4-1.1,8.4,2.7,10.3,14,6.9,29,9.8,44.3,12.3,9.3,1.5,13.5-11.7,4-14.5-13.2-3.8-26.3-7.6-39.7-10.6-6.5-1.5-13.1-2.8-19.7-3.8-5.9-.9-11.8-2-16.5,2.7-2.9,2.9-2.9,7.7,0,10.6,17.9,17.9,37.9,33.5,59.7,46.4,2.5-4.3,5-8.6,7.6-13-14.5-6.4-29.6-12.2-45.8-11-6.5.5-11.3,10.8-3.8,14,8.2,3.5,16.6,6.5,25.4,8.4s17,3.9,24.3-1.9c4-3.2,2.1-9.4-1.5-11.8-14.3-9.2-28.3-18.9-42-29.1l-5.8,13.7c10.6,4,20.9,8.6,31.1,13.5,9.4,4.5,19,10.7,29.7,11,7.2.2,10.5-10.6,3.8-14-26-12.8-55.8-15.7-83.7-7.9-5.3,1.5-7.5,8.6-3.3,12.5,7.2,6.8,14.1,13.8,20.8,21.1l10.6-10.6c-7.5-7.9-13.8-16.5-19.1-26-2.8,3.7-5.6,7.3-8.5,11,19.7,7.1,36.2,20.3,51.2,34.5l10.6-10.6c-8.1-6.3-16.1-12.6-24.5-18.6-7.6-5.5-15.9-10.2-23.4-15.9-6.6-4.9-11.6-10.8-14.1-18.6-2.7-8.5-4.2-17.3-9.3-24.7-3.4-5-9.4-4.5-12.9,0-6.2,8-4.2,22-2.7,31.3,1.7,10.1,5.8,19.8,12.2,27.8,3.1,3.8,6.7,6.7,9.3,10.8,3.2,5,7.7,6.5,13.2,7.7,12.5,2.9,25.4,4.3,38.2,4.5,9.8.1,9.4-14.1,0-15-6.9-.6-13.7-1.3-20.6-1.9-8.4-.8-10.3,13.2-2,14.7,17.3,3.2,34.9,4.2,52.4,2.6,9.6-.9,9.7-14.2,0-15-9.4-.8-18.7-1.1-28.1-.8v15c10.6-1.4,21.2-.8,31.8-.2,9.6.6,19.3,1.6,27.8,6.6,1.9-4.6,3.9-9.1,5.8-13.7-6.2-1.9-12.4-3.8-18.7-5.7-.7,4.9-1.3,9.8-2,14.7,7.5-.3,15,.7,19.9-6.1,4.6-6.4,2.5-14.7-4.8-17.9-6.8-3-16-3.1-23.3-3.3-8.5-.3-16.9.5-25.2,1.9-3.2.5-5.5,4.2-5.5,7.2s2.4,5.9,5.5,7.2c15.1,6.4,31.4,9.4,47.8,9.2,9.6-.1,9.7-15.1,0-15h0l-.2.3Z"/>
      <path class="cls-8" d="M112.5,164.1c-2.5,7.4-5.1,15.9-11.3,21-2.9,2.4-6.5,3.7-10.2,4.3-3.1.4-8.8,1-11.7-.8-1.6-1-2.9-3.1-4.4-4.4-1.7-1.5-3.6-2.9-5.4-4.2-3.6-2.5-7.6-4.6-11.3-7-8.9-5.6-16.7-12.9-24.8-19.6-7.5-6.2-16.7,3.1-10.6,10.6,7.6,9.3,19.1,15.4,25.4,25.7,6.2,10.2,8.1,22.3,17.1,30.8,7,6.6,17.5-3.8,10.6-10.6-10-10-19.9-20-26.7-32.6l-11.8,9.1c13.6,11.6,27.3,23.1,41,34.7l9.1-11.8c-13-8.1-25.2-17.3-36.6-27.7-6.2-5.7-16.1,1.5-11.8,9.1,5.7,10.1,11.9,19.9,18.8,29.3l10.3-10.3c-12-5.7-24-11.5-33.1-21.4-5.6-6.1-13.4.6-12.5,7.3,1.9,14.3,7.6,28,16.4,39.4,5,6.6,15.5,3,13.7-5.8-.9-4.6-2.4-9.1-4-13.5-.8-2.2-1.7-4.4-2.6-6.6-.6-1.5-2.2-4.1-2.3-5.7l-3.7,6.5.9-.5-3.8,1h1.3c0,.1-3.8-.9-3.8-.9,3.3,1.4,6,4.9,8.4,7.5,2.9,3,5.4,6.2,7.8,9.7l11.8-9.1c-11.3-12.7-20.6-26.8-27.9-42.1l-10.3,10.3c5.1,3.6,9.5,8.1,12.9,13.2l11.8-9.1c-5.8-5.7-11.5-11.4-15.8-18.4l-10.3,10.3c2.4,1.6,4.7,3.2,7.1,4.8,7.5,5.1,14.2-5.6,9.1-11.8-2.9-3.4-5.7-6.9-8.5-10.3l-9.1,11.8c7.7,4.6,16.5,6.8,24.3,11.2,3.7,2.1,6.7,5.8,10.9,6.5s8.9-.7,13.2-.9,8.8-.2,12.9,1.5c4.4,1.8,7.8,4.6,12.5,5.8,10.3,2.6,20.4,5.1,30.5,8.6,8.1,2.8,13.1-9.6,5.8-13.7,1.4,3.3,2.1,4.1,1.9,2.4,0-.6-.1-1.3-.2-1.9-.2-1.4-.4-2.6-.9-3.9-1-2.8-2.6-5.1-4.6-7.1-6.8-6.8-17.4,3.8-10.6,10.6,1.8,1.8,1.3,3.7,1.8,6.1.7,3,2.5,5.4,5.1,6.8l5.8-13.7c-6.3-2.2-12.6-4.2-19.1-5.9s-12.2-2.3-17.8-5.5-11.5-4.7-17.9-5c-5.7-.2-11.7,1.8-17.3,1.1l3.8,1c-2.4-1.3-4.4-3.4-6.8-4.9-2.7-1.6-5.5-2.9-8.4-4.1-5.8-2.5-11.8-4.6-17.2-7.8-7.7-4.6-14.3,5.5-9.1,11.8,2.9,3.4,5.7,6.9,8.5,10.3l9.1-11.8c-2.4-1.6-4.7-3.2-7.1-4.8-6.3-4.3-14.1,4.1-10.3,10.3,5,8,11.5,14.8,18.2,21.4,5.9,5.8,16.7-1.8,11.8-9.1s-11-13.5-18.3-18.6c-6.7-4.7-13.2,4.2-10.3,10.3,7.9,16.4,18.1,31.5,30.2,45.1,5.6,6.3,16.6-2,11.8-9.1-4-5.9-8.6-11.3-13.7-16.3s-10.5-9.6-17.6-5.8c-2.2,1.2-3.9,4-3.7,6.5.3,5.1,3,10,4.8,14.6,1.9,5,3.6,10,4.6,15.2,4.6-1.9,9.1-3.9,13.7-5.8-8.1-10.6-13.1-22.6-14.9-35.8l-12.5,7.3c10,10.8,23.1,17.5,36.2,23.8,6.1,2.9,15.1-3.6,10.3-10.3-6.8-9.4-13.1-19.2-18.8-29.3l-11.8,9.1c12.3,11.2,25.5,21.2,39.6,30,7.1,4.4,15.7-6.2,9.1-11.8-13.6-11.6-27.3-23.1-41-34.7-6.4-5.4-15.9,1.3-11.8,9.1,7.3,13.7,18.1,24.8,29,35.6l10.6-10.6c-8.5-8-9.7-21-16.4-30.3-7.3-10.1-18.2-16.6-26.1-26.2l-10.6,10.6c9.7,8.1,19.1,16.8,29.9,23.3,4.6,2.8,9.5,5.4,13.4,9.2,4.6,4.6,8.5,6.9,15,7.7,10.7,1.3,21.8-.9,30.2-8,8.4-7.1,12.4-18,15.7-28.1,3-9.2-11.4-13.1-14.5-4h0l-.1-.2Z"/>
      <path class="cls-8" d="M90.2,195.5c7.2,3.6,16.8-.4,22.8-5.1,3.4-2.7,3.5-5.5,5.5-9,1-1.7,2.9-3.1,4-4.7,1.4-1.9,2.5-3.9,3.6-6,3.1-5.7-2-12.7-8.5-11-.7.2-1.4.4-2,.5-9.3,2.5-5.4,17,4,14.5.7-.2,1.4-.4,2-.5l-8.5-11c-2.6,4.9-7.1,8.6-9,13.8-.2.6-.3,1.5-.6,2.1.9-1.5-.5,0-1.5.5-2,1-4.7,2.8-6.9,2.6l3.8,1-1.1-.6c-8.6-4.4-16.2,8.6-7.6,13h0v-.1Z"/>
      <path class="cls-8" d="M107.2,191.2c9.6,0,9.7-15,0-15s-9.7,15,0,15h0Z"/>
      <path class="cls-8" d="M71.9,187.1c9.6,0,9.7-15,0-15s-9.7,15,0,15h0Z"/>
      <path class="cls-8" d="M76.9,174.4c-2.1-4.5-6.3-7.9-11.1-8.9-5.6-1.2-9.1,1.1-11.9,5.7l4.5-3.5-.8.2h4c-2.9-.5-5.6-.9-8.5-.4-1.4.2-2.6.5-4,1.1l-1.8.8c-.6.4-.5.3.1-.2-3.8-1.5-8.2,1.6-9.2,5.2-1.2,4.2,1.5,7.8,5.2,9.2,2.2.8,4.6,1,6.9.5,2-.5,3.8-1.8,5.9-1.9s4,.7,6.2,0c1.2-.4,2.4-1,3.3-1.9.6-.6,1-1.3,1.4-2,.6-1,.2-.7-1.2.8l-3.8,1c1.3,0,1.3.6,1.8,1.7,1.7,3.7,7,4.5,10.3,2.7,3.8-2.2,4.4-6.6,2.7-10.3h0v.2Z"/>
      <path class="cls-8" d="M112.2,182.7c0-26.1,1.7-52.2,5-78.1h-15c.4,6.6-.9,13.5-1.6,20.1-.7,6.6-1.6,13.4-2,20.2-.9,13.2-.4,26.5,3.3,39.3,2.4,8.5,14,6.1,14.7-2,1.2-13,3.1-26,5.5-38.8,1.2-6.3,2.9-12.6,3.6-19s-.5-12.3-.3-18.6c.3-8.4-12.7-10.2-14.7-2-7.2,29.8-12.5,59.9-16,90.3l11.3-6.5c.4.2.1.6,0,0,0-.7-.3-1.5-.5-2.3-.4-2.8-.6-5.6-.7-8.4-.2-5.3,0-10.6.4-15.8.9-10.5,3.3-20.9,6.2-31-4.9-.7-9.8-1.3-14.7-2-.5,10.3-1.4,20.5-3.1,30.6-.8,4.9-1.8,9.8-2.9,14.7-.6,2.4-1.1,4.9-1.8,7.3-.3,1.2-.6,2.4-1,3.6-.2.6-.3,1.2-.5,1.8-.4,1.3-.3,1.2.2-.2l5.3-2.2h-.9l3.8,1.1c1.3,1.6,1.5,1.3.8-.9-.2-1.3-.4-2.5-.6-3.8-.4-2.5-.8-5-1-7.5-.5-4.4-.9-8.9-1.3-13.4s-.6-8.9-.9-13.4c-.1-2.2-.4-4.4-.3-6.6,0-.7,0-1.4.1-2.1.5-1.2-.1-1.1-1.8.2l-3.8-1c-1.7-2.3-2.1-2.2-1.3.2.1,1.3.2,2.5.2,3.8,0,1.9-.1,3.9-.3,5.8-.4,4.4-1.3,8.7-2.2,13-1.8,8.3-3.8,16.6-5.7,24.9l12.5-3.3c-3-2.8-3.8-7.4-5-11.2-1.3-4.2-2.6-8.4-3.8-12.6-2.5-9.1-4.6-18.3-6.4-27.5-4.8,1.3-9.6,2.7-14.5,4,4.9,17.4,10.1,34.6,15.5,51.8,4.2-2.4,8.4-4.9,12.5-7.3-10.4-8.5-20.2-17.7-29.2-27.6-6.5-7.2-16.8,3.4-10.6,10.6,8,9.3,15.2,19.3,21.6,29.8l10.3-10.3c-11.4-6.9-21.3-15.4-29.8-25.6-5.4-6.5-16.8,2.2-11.8,9.1,5.1,7,10.8,13.3,17.5,18.9l7.3-12.5c-5-1.9-9.3-6.2-13.2-9.7-4.5-4-8.7-8.3-12.7-12.7l-5.3,12.8c7.6-.7,14.6.4,21.3,4.1l5.8-13.7c-6.6-2.2-12.5-6.2-16.6-11.8l-8.5,11c6.7,1.2,13.1,5.4,19.1,8.4,6.7,3.4,13.3,6.8,19.9,10.4l7.6-13c-12.1-6.1-21.6-15.5-31.1-24.9-1.8,4.3-3.5,8.5-5.3,12.8,11.6,0,21.9,5.5,32,10.8,7.6,4,14.9-5.4,9.1-11.8-8.8-9.7-17.6-19.4-26.4-29.2-2.4,4.2-4.9,8.4-7.3,12.5,6.8,1.2,12.1,5.9,17.5,9.8,6.2,4.4,12.4,8.9,18.6,13.3s14.7-4.3,10.3-10.3c-6.5-8.9-13.2-17.9-16.7-28.4l-11,8.5c4.7,2.5,8,6.5,11.4,10.5,3.9,4.5,7.8,9.1,11.7,13.6,3.4,4,9.2,2.1,11.8-1.5,4.5-6.3-.1-14.1-2.6-20.3-2.7-6.6-5.6-13.4-5.9-20.6l-9.5,7.2c-2.4-2-2.7-1.9-1,.2.7,1,1.4,2.1,2.2,3.2,1.1,1.6,2.2,3.2,3.2,4.7,2.5,3.7,5,7.4,7.5,11,5.4,7.9,17.9.9,13-7.6-5.2-9-10.2-17.9-12.5-28.2l-12.5,7.3c6.3,6.5,13.7,11.8,21.9,15.6,8.9,4.1,15.2-7.1,7.6-13s-14.1-14.1-20.3-21.9c-5.6-7-15.4,1.9-11.8,9.1,3.9,7.8,8.3,15.5,11.7,23.5l-1-3.8v1.1c.1,0,1.1-3.8,1.1-3.8,4.4-1,5.2-1.8,2.3-2.2-.9-.2-1.8-.6-2.6-1-1.5-.6-2.9-1.5-4.2-2.3-3.1-1.8-6.1-4.2-9.5-5.6-9.8-4.1-13.8,4.9-16.8,12.5-2.8,7-4.8,14.5-8.7,21-1.7,2.9-3.8,6.1-6.9,7.6-2.6,1.3-7.6,2.2-10.4,1.4l5.2,5.2v-.6c-.1,0-.1,4-.1,4,3.1-9.4,14.4-16.8,22.2-22,10.2-6.8,20.9-13.1,29.4-22.1l-10.6-10.6c-11.9,12.5-23.9,25.1-38.5,34.4-8.1,5.2-.6,18.1,7.6,13,15.7-10,28.7-23.3,41.5-36.7,6.6-7-3.9-17.6-10.6-10.6-9.7,10.1-22.4,16.4-33.5,24.7-5.1,3.8-10,7.9-14,12.9-4,5-9.2,11.1-7.8,17.7.6,2.6,2.8,4.5,5.2,5.2,5.5,1.7,13.3.6,18.6-1.4,6-2.2,10.3-6.6,13.9-11.8s5.8-10.8,7.9-16.5c1-2.6,1.9-5.2,2.8-7.8.6-1.5,1.1-2.9,1.7-4.4.4-.9,2.7-3.8.6-2.3l-3.8,1h1.3l-3.8-.9c8.7,4.1,21.4,16.3,31.5,9.3,6.4-4.5,3.6-11.2.8-16.9-3.2-6.3-6.3-12.6-9.5-18.9-3.9,3-7.9,6.1-11.8,9.1,7.1,8.9,14.2,17.3,23.3,24.2,2.5-4.3,5-8.6,7.6-13-7.2-3.3-13.4-7.6-18.9-13.3s-14.1.2-12.5,7.3c2.5,11.4,8.2,21.7,14,31.8l13-7.6c-3.4-5-6.8-10-10.2-15-3.1-4.6-5.4-8.8-10.7-11-4.5-1.9-9.7,2.8-9.5,7.2.2,6.3,1.7,12.4,3.9,18.3,1,2.7,2.1,5.3,3.2,7.9.6,1.6,1.3,3.1,1.9,4.7.4,1.1.5,3.9,1.6,2.4l11.8-1.5c-7.8-9.1-15.4-20.6-26.1-26.5-5.4-3-13.2,2-11,8.5,3.9,11.9,10.9,22,18.2,32l10.3-10.3c-6.7-4.8-13.4-9.6-20.1-14.4-6.1-4.3-12.1-8.9-19.6-10.2s-12.6,6.7-7.3,12.5c8.8,9.7,17.6,19.4,26.4,29.2l9.1-11.8c-12.4-6.5-25.2-12.8-39.5-12.8-6.5,0-9.9,8.2-5.3,12.8,10.3,10.3,21,20.6,34.1,27.3,8.6,4.3,16.1-8.3,7.6-13-7.1-3.9-14.3-7.6-21.6-11.2-6.6-3.3-13.7-7.7-21.1-9.1-5.7-1-12.7,5.2-8.5,11,6.6,8.9,15,15.2,25.6,18.7,8.1,2.7,13.2-9.7,5.8-13.7-8.9-4.8-18.8-7.1-28.9-6.1-6.5.6-9.9,7.7-5.3,12.8,9,10,19.7,21.6,32.5,26.3,6.9,2.5,13-7.8,7.3-12.5s-10.8-9.9-15.2-15.8l-11.8,9.1c9.3,11.1,20.4,20.5,32.8,27.9,6.4,3.9,14.2-3.9,10.3-10.3-7.1-11.6-15.1-22.5-23.9-32.8l-10.6,10.6c9,10,18.8,19.2,29.2,27.6,5.3,4.3,15,.5,12.5-7.3-5.4-17.2-10.6-34.5-15.5-51.8-2.6-9.4-16.2-5.4-14.5,4,2,10.5,4.5,20.9,7.4,31.1,2.6,8.9,4.6,20.3,11.6,26.9,3.9,3.7,11.2,2.4,12.5-3.3,3.6-15.4,8.8-31.6,8.7-47.6,0-6.9-1.1-17.4-10.1-18-7-.5-11.8,5.7-12.9,12.1-1.2,7.1,0,14.8.5,21.9.6,8.3,1.4,16.6,2.6,24.9.9,6.5,1.8,16.2,10,17.3,9.3,1.3,11.1-9.1,12.8-15.8,4.5-17.9,7-36.3,7.8-54.8.4-8.6-12.4-10-14.7-2-3.9,13.2-6.6,26.8-7.1,40.6-.3,6.9,0,13.7.9,20.5.7,5.5,2.4,10.7,7.6,13.4,5.2,2.8,10.6-.9,11.3-6.5,3.3-29.1,8.5-57.9,15.4-86.3-4.9-.7-9.8-1.3-14.7-2-.2,5.8,1.1,11.7.5,17.5-.8,6.6-2.7,13.2-3.9,19.8-2.3,12.9-4.1,26-5.3,39.1l14.7-2c-3.5-12.2-3.6-24.7-2.6-37.2.5-6.4,1.3-12.8,2-19.2s2-12.8,1.5-19.1c-.6-9.9-13.8-9.4-15,0-3.4,25.9-5,52-5,78.1,0,9.6,15,9.7,15,0h0v.3Z"/>
      <path class="cls-8" d="M89.9,77.8c-6,3.6-12,7.2-18,10.8-5.1,3.1-11,5.9-15.3,10.2-1.9,1.9-3.5,4.3-4.4,6.8-.7,2.1,0,6.1-1.1,7.8,1.1-1.9-1.6,0-2,.3-1.1.7-2.1,1.5-3.2,2.2-1.8,1.4-3.4,3.4-5.7,3.2l7.5,7.5c-.2,1.9,2.1-1.1,2.8-1.9,1.5-1.4,2.8-3,4-4.7,2.4-3.4,4.4-7,6.5-10.5,2.7-4.4,5.5-8.8,8-13.3.8-1.5,1.6-3,2.2-4.6.4-1,.7-2,.9-3,.4-1.7.2-1.7-.5,0,2.7-2.4,5.7-4.2,8-7.1,2.6-3.2,4.7-6.8,6.4-10.6,1.6-3.3,2.8-6.8,4.3-10.1,1.4-3,3.1-8.1,5.9-10.2l-3.8,1h1.2l-6.5-3.7c-.3-1-.3-.6,0,1.3.1.9.2,1.9.2,2.8,0,1.8.4,4-.2,5.8l5.2-5.2c1.7,0,1.6-.1-.4-.4-1-.2-2.1-.4-3.1-.7-5-1.2-11.4,3.6-9.2,9.2,2.2,5.6,4.8,10.8,8.4,15.7,2.2-3.8,4.3-7.5,6.5-11.3-6.5-.6-13-1.1-19.5-1.7s-9.7,8.5-5.3,12.8c3.9,3.8,7.4,7.7,10.7,12l7.3-12.5c-3.9-.8-7.5-2-11.1-3.7-4.8-2.3-11.6.4-11.3,6.5.2,3.8,1.1,7.5,2.1,11.1,0,.5,0,.9-.2,1.4.6-.8.6-.9-.1-.5-1.4.8-2.7,1.3-4,2.4-5.9,5.2-4.2,14.5-2.5,21.3,2.4,9.3,16.9,5.4,14.5-4-.5-1.9-.9-3.7-1-5.7v-2.6c-1.4,2-1.6,2.7-.4,2,2.2.5,6-4.5,6.8-6,3.7-6.8.2-12.6-.1-19.4l-11.3,6.5c4.7,2.3,9.6,4.1,14.7,5.2,7.8,1.7,11.8-6.8,7.3-12.5-3.3-4.2-6.9-8.2-10.7-12l-5.3,12.8c6.5.6,13,1.1,19.5,1.7,5.4.5,9.7-6.8,6.5-11.3-2.7-3.8-5.1-7.8-6.8-12.1l-9.2,9.2c6.2,1.5,14.5,3.4,16.8-4.8,1.6-5.4,1.4-16.1-1.8-20.9-5.2-7.7-13.2-2.3-17.2,3.2s-6.3,11.8-8.9,17.9c-2.4,5.5-5,10.6-9.9,14.2-3,2.2-5.2,3.9-6.2,7.6-.9,3.2-1.9,5.6-3.6,8.4-3.9,6.5-7.5,13.4-11.9,19.5-1.6,2.2-3.6,3.7-5.4,5.6-2.7,3-3.8,5.8-4.3,9.7-.6,4.3,3.9,7.2,7.5,7.5,6.8.6,10.6-3.8,15.8-7.1,5.8-3.7,9.4-6.2,10.1-13.6.3-2.6.4-3.7,2.6-5.4,2.5-1.9,5.4-3.4,8.1-5,6.8-4.1,13.7-8.2,20.5-12.3,8.3-5,.7-17.9-7.6-13h0l.2.3Z"/>
    </g>
    <g id="Lag_3" data-name="Lag 3">
      <path class="cls-10" d="M65.1,119.2c-1,3-2,6.1-3.7,8.7l2.7-2.7-.7.3,10.3,10.3c1-2.3,2.1-4.6,3.1-6.9.6-1.3,1.1-2.6,1.7-3.8.2-.6.6-1.3.3-1.2,1.2-.8,3.5-.6,4.9-1,2.4-.7,4.4-2,6.3-3.5l-11.8-9.1c-2.6,4.2-4.8,8.6-8.4,11.9-2.9,2.7-4.9,7.5-8.5,9.2-8.7,4.1-1.1,17,7.6,13,5.2-2.5,7.5-7.8,11.5-11.5,4.6-4.2,7.5-9.7,10.7-15,4.7-7.7-5.5-14.3-11.8-9.1.9-.7-1.8.1-2,.2-.8.1-1.6.2-2.4.5-2.6.7-4.9,2-6.8,3.9-3.7,3.8-5.4,10.1-7.5,14.9-3.2,7.1,3.2,13.3,10.3,10.3,5-2.2,7.1-10.6,8.6-15.3,3-9.2-11.5-13.1-14.5-4h0l.1-.1Z"/>
      <path class="cls-10" d="M74,104.1l.5-1.1,7.3,12.5c.6-.5,1.1-1,1.7-1.5l-10.6-10.6c-8.6,9.4-14.2,19.8-15.8,32.5-.5,4,3.8,7.5,7.5,7.5s7-3.5,7.5-7.5c1-8.5,5.7-15.7,11.4-21.9,6.6-7.2-3.4-16.9-10.6-10.6-.6.5-1.1,1-1.7,1.5-6.1,5.4.6,13.8,7.3,12.5,5.1-.9,8.4-4.6,10-9.4,3-9.2-11.5-13.1-14.5-4h0v.1Z"/>
      <path class="cls-10" d="M91.3,142c-3.7,2.4-8.1,4.5-11.1,7.7s-4,7.1-4.6,11.1c-1.3,8.5.8,18,9.9,21,20,6.6,30.1-19.3,29.2-35-.4-6.3-8-10.1-12.8-5.3-2.6,2.7-5,5.4-7.3,8.4-1.8,2.3-3.6,6.2-6,7.8-8,5.4-.5,18.4,7.6,13,6.8-4.5,10.7-12.8,16.4-18.6-4.3-1.8-8.5-3.5-12.8-5.3.4,6.8-1.1,17.7-7.9,21-.6,0-1.1,0-1.6-.2.5.9.5.7,0-.8-.3-1.6,0-3.6.4-5.1.9-3.4,5.5-5,8.2-6.8,8.1-5.2.6-18.2-7.6-13h0v.1Z"/>
      <path class="cls-10" d="M87.7,111l1.4-.9c7.9-5.4.4-18.4-7.6-13-.8.7-1.8,1.2-2.8,1.6-7.9,3.6-2.2,15.8,5.8,13.7,1.9-.5,3.6-1,5.4-1.7,6.4-2.4,7.1-9.7,1.8-13.7l-.9-.7c-6.9-5.2-14.9,5.9-9.1,11.8,2,2-.7,6-2.2,7.5-2.8,3-4.3,6.7-6.7,10s-.5,8.4,2.7,10.3c3.8,2.3,7.9.5,10.3-2.7,1.8-2.4,3-5,4.8-7.3,2.4-3,4.2-5.1,5.4-8.8,2.2-7.1,1.8-14-3.6-19.5l-9.1,11.8.9.7,1.8-13.7c-1.8.7-3.5,1.2-5.4,1.7l5.8,13.7c1-.4,2-.9,2.8-1.6-2.5-4.3-5.1-8.6-7.6-13l-1.4.9c-7.9,5.4-.4,18.4,7.6,13h0l-.1-.1Z"/>
      <path class="cls-10" d="M86.7,130.7c.2-.1.4-.3.6-.4.6-.5,1.3-1,1.9-1.5.8-.7,1.4-1.6,2-2.5s.8-1.8.9-2.8c.2-1,.2-2-.1-3-.2-1-.7-1.8-1.3-2.5-.5-.8-1.2-1.5-2.1-1.9l-1.8-.8c-1.3-.4-2.7-.4-4,0l-1.8.8c-1.1.7-2,1.6-2.7,2.7,0,.1-.1.2-.2.3l1.2-1.5c-.3.4-.6.7-1,1l1.5-1.2c-.2.1-.4.3-.6.4-.9.5-1.6,1.1-2.1,1.9-.7.7-1.1,1.6-1.3,2.5-.3,1-.4,2-.1,3,0,1,.3,1.9.9,2.8l1.2,1.5c.9.9,2,1.6,3.3,1.9l2,.3c1.4,0,2.6-.4,3.8-1h-.2Z"/>
      <path class="cls-10" d="M76.4,126.3c-3.6-1.1-7.6.3-9.9,3.2,0,0-1.6,2.7-1.8,2.7.5,0,.5-1.3.2-.3l-.4.3c.8-.6.9-.7.5-.4-4.1,1.9-7.3,5.2-8.9,9.3-1.4,3.7,1.6,8.4,5.2,9.2,4.3,1,7.7-1.3,9.2-5.2,0,.1-1.3,2.5-.6,1.3.7-1.1-1,.6.1,0,.9-.5,1.8-1.1,2.7-1.7,1.2-.8,2.5-1.8,3.4-2.9.6-.7,1.1-1.4,1.6-2.2.1-.2.3-.5.4-.8.7-1.1.3-.7-1.1,1.1l-3.8,1-.9-.2c3.8,1.1,8.3-1.4,9.2-5.2s-1.2-8-5.2-9.2h.1Z"/>
      <path class="cls-10" d="M102.2,150.3c4.5-2.9,6.6-6.2,8.4-11.1,1.6-4.4,3.4-8.8,4.4-13.4,2.1-9.4-12.3-13.4-14.5-4-.7,3.2-1.9,6.2-3,9.3-.8,2.1-1,5-3,6.3-8.1,5.2-.6,18.2,7.6,13h0l.1-.1Z"/>
      <path class="cls-10" d="M112.5,152.7c3.8-3,3.7-8.1,4.2-12.4.5-5,1.1-10,1.2-15,.1-9.7-14.9-9.7-15,0,0,3.5-.3,6.9-.7,10.3-.2,1.6-.3,3.2-.5,4.7,0,.8-.2,1.6-.3,2.4-.1.9,0,.7.5-.5-3.2,2.5-2.6,8,0,10.6,3.1,3.1,7.4,2.5,10.6,0h0v-.1Z"/>
      <path class="cls-10" d="M113.4,119.1c3.2,0,3.2-5,0-5s-3.2,5,0,5h0Z"/>
      <path class="cls-10" d="M110.6,119.1l.8,1.6,3.9-3c-.5-.6-1.1-1.2-1.6-1.8s-1-1.3-1.8-1.7-1.4-.4-2.2-.2c-.1,0-.6,0,0,0h-.4c-.1,0-.6,0-.3,0s-.3,0-.3,0c-.1,0-.3,0-.4-.1.5.2,0,0-.2-.1-1.2-.7-2.7-.3-3.4.9-.5.8-.8,1.8-.7,2.7.1,1.1.7,2.1,1.8,2.4,1,.2,2.4-.1,2.8-1.1,1-2.3,1.6-4.5,1.9-7,.1-1,.2-2.1.2-3.1q0,.3,0,0v.3c0-.4.2-.7.3-1,.3-1,0-2.1-.8-2.8s-1.8-.9-2.7-.5c-.9.4-1.6,1.3-1.5,2.3,0,1.3.2,2.6.8,3.8.4.8.9,1.4,1.3,2.2,0,.1.1.4.2.5-.1-.3-.1-.4,0-.1,0,.1.1.3.2.5.2.4.4.9.6,1.3.5,1,1.3,1.8,2.2,2.4,1.1.7,2.8.2,3.4-.9.7-1.3.3-2.6-.9-3.4-.4-.3.3.4,0,0l-.2-.2c-.1-.1,0,0,.1.2-.1,0-.4-.7-.5-.8,0-.2-.1-.3-.2-.5-.1-.3.2.5,0,0s-.4-1-.6-1.4c-.3-.6-.7-1.2-1.1-1.8-.3-.5,0,.4,0-.2,0-.2-.1-.4-.1-.6-.1-.5,0,.4,0-.2v-.6l-4.3,1.8h.1l-.6-1c-.1-.4-.1-.8,0-1.1q0-.2,0,0c-.1.3-.3.7-.4,1-.1.5-.1,1.1-.1,1.6v2s-.1.8,0,.3c-.1.9-.3,1.7-.5,2.5-.1.5-.3.9-.4,1.3,0,.2-.2.4-.2.7,0,0-.3.7-.1.3l4.7,1.3c0-.2,0-.7,0,0,0-.5-.2.3,0-.1l-3.4.9c.9.5,1.8.8,2.7.9.4,0,.9.1,1.3,0,.3,0,.7,0,1-.1h.2q.3,0,0,0l-1.3-.3c-.1,0-.4-.4-.2-.1.1.1.2.3.3.4.2.3.5.6.8.9.5.5,1,1.1,1.4,1.6.8.9,2.4.9,3.3.2,1-.8,1.2-2.1.6-3.2l-.8-1.6c-.6-1.2-2.3-1.6-3.4-.9-1.2.8-1.5,2.2-.9,3.4h0l-.4-.7Z"/>
      <path class="cls-10" d="M92,102.9c3.2,0,3.2-5,0-5s-3.2,5,0,5h0Z"/>
      <path class="cls-10" d="M76.5,105.9c3.2,0,3.2-5,0-5s-3.2,5,0,5h0Z"/>
      <path class="cls-10" d="M69.3,107.6c-3,1.8-4.9,5.1-6.3,8.2-.4.9-.7,1.8-1,2.6-.2.6-.7,1.3-1.1,2-.9,1.9-1.4,3.9-1.4,6,0,1.4,1.1,2.5,2.5,2.5s2.5-1.1,2.5-2.5.3-2.6.9-3.9c.4-.8.9-1.6,1.2-2.5.3-.7.5-1.5.8-2.2.5-1.1,1.2-2.5,2-3.7.6-1,1.4-1.9,2.4-2.5,1.2-.7,1.6-2.2.9-3.4s-2.3-1.6-3.4-.9h0v.3Z"/>
      <path class="cls-10" d="M57.3,136.2c.1,1,.1,1.9,0,2.9v-.7c0,.6-.1,1.2-.3,1.8h4.8c-.1-.3-.2-.5-.2-.8v.7-.9.7-.2c.1-.7.1-1.3-.2-1.9-.3-.5-.9-1-1.5-1.1s-1.4-.1-1.9.2-1,.9-1.1,1.5c-.2,1.1-.2,2.2.2,3.3l.2.6c.2.3.4.5.6.7.4.3,1,.6,1.5.5.4,0,.9-.1,1.3-.3.6-.3,1-.9,1.1-1.5.3-1,.4-1.9.5-2.9v-2.4c0-.3,0-.7-.2-1-.1-.3-.3-.6-.5-.8-.4-.4-1.1-.8-1.8-.7s-1.3.2-1.8.7c-.4.5-.8,1.1-.7,1.8h0v-.2Z"/>
      <path class="cls-10" d="M81.9,119.5c-.4,1.8-1.1,3.3-2.3,4.6s-2.9,2.3-4.3,3.5c-3,2.6-4.4,6.4-6.6,9.5s-5.3,5.8-7.3,9.1c-.6,1-.5,2-.8,3.1-.2.6-.6,1.1-1,1.6-1.3,1.7-2.3,3.5-2.7,5.7-.2,1.3.4,2.7,1.8,3.1,1.2.3,2.8-.4,3.1-1.8.4-2,1.4-3.3,2.5-4.9.6-.8,1-1.7,1.2-2.6s0-1.4.7-2.2c2.4-3.1,5.1-6,7.4-9.2,1.1-1.6,1.9-3.4,3-5,.9-1.5,2.1-2.6,3.4-3.6,3.3-2.5,6-5.2,6.9-9.4.3-1.3-.4-2.7-1.8-3.1-1.2-.3-2.8.4-3.1,1.8h0l-.1-.2Z"/>
      <path class="cls-10" d="M56.5,144.7c-.8,3.4-1.6,6.9-1.7,10.4,0,3.3.5,6.8-.2,10-.3,1.3.4,2.7,1.8,3.1,1.2.3,2.8-.4,3.1-1.8.8-3.5.4-7,.4-10.6,0-3.4.7-6.6,1.5-9.9.3-1.3-.4-2.7-1.8-3.1-1.3-.4-2.8.4-3.1,1.8h0v.1Z"/>
      <path class="cls-10" d="M60.8,162.1v-.5c0-.2,0-.3,0,0,0-.2,0-.3.1-.5,0-.1.1-.3,0,0,.3-.6.8-1.1,1.1-1.7.4-.7.6-1.4.9-2.1,0,0,.2-.5.1-.3s.1-.2.1-.3c.2-.3.3-.7.5-1,.3-.6.6-1.1,1-1.7.2-.3.4-.5.6-.8.1-.1.2-.3.3-.4-.2.2,0,0,0,0,.9-1.1,1.8-2.1,2.7-3.1.9-1,1-2.6,0-3.5s-2.6-1-3.5,0c-2.1,2.2-4.1,4.6-5.6,7.3-.4.7-.7,1.5-1,2.2,0,.2-.1.4-.2.6,0,.1-.1.3,0,0-.2.3-.3.6-.5.9-.5.7-1,1.4-1.3,2.2s-.4,1.8-.4,2.7c-.1,1.3,1.2,2.6,2.5,2.5,1.4,0,2.4-1.1,2.5-2.5h.1Z"/>
      <path class="cls-10" d="M93.4,104.1c3.2,0,3.2-5,0-5s-3.2,5,0,5h0Z"/>
    </g>
    <g id="Lag_11" data-name="Lag 11">
      <path class="cls-5" d="M72.1,33.6c-14.9,30.6-33.9,59.6-47.9,91.6C12.2,154.1,4.2,184.1.7,215.6"/>
      <path class="cls-2" d="M71.7,34.7c18.7,1.4,37.6,3,56.1,4.8,9.3.8,18.6.8,27.9,1.5,18.8,1.7,37.5,4.5,56.3,3.7"/>
      <path class="cls-6" d="M71.4,35.2c-1.5-5-3.5-9.8-5.2-14.7-1.7-5.1-3.1-10.3-4.6-15.5"/>
      <path class="cls-2" d="M61,5.9C67.8,0,74.8.3,83.3.7c47.3,2.3,94.8,1.3,141.9,6.9"/>
      <path class="cls-2" d="M211.3,44.8c1.3-2.5,2.6-5,3.8-7.5,4.5-9.6,12.3-19.2,8.4-30.2"/>
      <path class="cls-5" d="M210.9,45.7c20.3,50.5,40.3,102.5,46.3,156"/>
      <path class="cls-5" d="M257.2,200.8c-3.3,39.9-16.4,63.5-53.7,79.8"/>
      <path class="cls-5" d="M.5,215.4c8.8,27.7,18.2,48.3,44.1,62.9"/>
      <path class="cls-5" d="M43.9,277.8c53.5,5.9,107.6,4.3,161.3,2.2"/>
      <path class="cls-5" d="M210.4,44.5c-12.6,22.2-26.8,44-36,67.8-8.6,23.5-16.3,48.6-16.1,73.8.3,17.1,5.6,33.9,13.6,49,4,7.5,8.5,14.7,13.5,21.5,6.1,8.1,13.6,14.8,20.9,21.8"/>
      <path class="cls-5" d="M205.7,278.5c-6.9-18.4-14-36.5-17.6-56.1-1.2-6.6-2.2-13.4-3.2-20"/>
      <path class="cls-5" d="M205.9,279.5c2.4-21.6,5.1-43.2,6.6-64.9"/>
      <path class="cls-5" d="M206.7,279.2c9.1-9.7,16.1-20.5,20.5-33.3,4.1-12,7.4-24.7,11.6-36.9"/>
      <path class="cls-5" d="M210,46.6c-3.2-12.9-2.6-26.6,1.7-39.2"/>
      <path class="cls-5" d="M72.4,1.2c.6,4,1.4,7.9,2.5,11.8"/>
      <path class="cls-5" d="M98.1,1.7c-2.3,11.5-1.5,23.6,2.2,34.8"/>
      <path class="cls-5" d="M125.1,2.2c-.9,5.4-.5,10.9,0,16.4.4,5.3.8,10.7,2.2,15.9.6,2.3,1.4,4.5,2.4,6.6"/>
      <path class="cls-5" d="M141.6,3.8c-1.6,5.9-2,12.2-1.2,18.3"/>
      <path class="cls-5" d="M177.4,4c-1.8,13.2,2.4,26.4,5.6,39.3"/>
      <path class="cls-5" d="M75.5,100.7c-6.8,5.9-12.5,13-15.6,21.7-2.5,7.1-3.4,15.2-4,23-.5,6.1-1.1,15.4-.5,19.8.8,7.4,4.4-1.5,5.8-4.1,3.4-7.8,8.7-14.6,15.2-20,4-3.5,8.3-6.8,11.7-10.9,4.5-5.2,8-11.5,8.8-18.3,1.7-15.9-9.5-21.9-21.3-11.3h-.2v.1h.1Z"/>
      <path class="cls-5" d="M75.7,159.2c-1.3,9.1,3.1,19.7,12.2,22.5,6.6,2,13.3-1.5,17.4-6.7,3.9-4.7,5.8-10.7,7.5-16.5,4.1-14,7-29,1.9-43-1.1-3-2.6-6.3-4.3-8.9-.9-1.3-1.6-2.1-2.2-2.2-2.2-.2-2,7-3.4,10.1-1.1,3.5-2.8,6.7-4.2,10.1-2.1,5-3.4,10.5-6.8,14.3-6.8,7.2-16.5,8.4-18.1,20.1v.2h0Z"/>
      <path class="cls-3" d="M109.5,130.3c1.6,19.4-.8,30.6-17.2,42.4"/>
    </g>
  </g>
  <g id="Lag_3-2" data-name="Lag 3">
    <path class="cls-7" d="M7.42,13.41c28.19,27.89,56.46,55.73,84.53,83.74,53.75,53.96,104.68,110.13,156.73,165.56"/>
    <path class="cls-7" d="M249.97,8.42C166.96,93.58,87.02,180.96,9.78,271.2"/>
  </g>
</svg>